<svg width="24" height="24" viewBox="0 0 24 24" fill="none" xmlns="http://www.w3.org/2000/svg">
<g clip-path="url(#clip0_127_62)">
<path d="M11.9325 -6.30669e-06C11.8034 0.00575427 11.6807 0.0578669 11.5869 0.146771C10.5488 1.23704 9.93866 2.66508 9.8684 4.16888C9.9379 5.67346 10.5481 7.10239 11.5869 8.19303L12.0446 8.65171L12.7387 9.34177L15.3929 11.996L12.7387 14.6512L13.1525 15.0651C14.3899 16.3487 15.1106 18.0435 15.1768 19.8251C15.1755 20.2701 15.1245 20.7135 15.025 21.1472L23.0682 13.104C23.3617 12.8104 23.5266 12.4122 23.5266 11.997C23.5266 11.5818 23.3617 11.1837 23.0682 10.8901L12.3239 0.146771C12.2717 0.0973818 12.2103 0.058945 12.143 0.0337341C12.0758 0.00852323 12.0042 -0.00294977 11.9325 -6.30669e-06ZM8.9755 2.84686L0.932304 10.8901C0.638765 11.1837 0.473862 11.5818 0.473862 11.997C0.473862 12.4122 0.638765 12.8104 0.932304 13.104L11.6756 23.8493C11.7735 23.9471 11.9062 24.0021 12.0446 24.0021C12.183 24.0021 12.3157 23.9471 12.4136 23.8493C13.4519 22.7592 14.0621 21.331 14.1321 19.8272C14.0618 18.3234 13.4517 16.8953 12.4136 15.8051L8.60754 11.997L11.2618 9.34177L10.8479 8.92793C9.61081 7.64464 8.89042 5.95017 8.82465 4.16888C8.82568 3.72397 8.87628 3.28057 8.9755 2.84686Z" fill="#72B0F6"/>
</g>
<defs>
<clipPath id="clip0_127_62">
<rect width="24" height="24" fill="white"/>
</clipPath>
</defs>
</svg>
