<svg width="24" height="24" viewBox="0 0 24 24" fill="none" xmlns="http://www.w3.org/2000/svg">
<path d="M22 5.555V18.445C22 19.08 21.605 19.645 21.01 19.855L16.6 21.925L17 16.5V7.5L16.6 2.075L21.01 4.145C21.605 4.355 22 4.92 22 5.555Z" fill="#29B6F6"/>
<path d="M4.5 16.948L17 7.5V2.6765C17 2.0775 16.259 1.7975 15.8625 2.2465L2.329 14.6195C1.879 15.0345 1.9045 15.753 2.3825 16.1355C2.3825 16.1355 3.0445 16.7515 3.284 16.9225C3.652 17.185 4.1355 17.215 4.5 16.948Z" fill="#0277BD"/>
<path d="M4.5 7.052L17 16.5V21.3235C17 21.9225 16.259 22.2025 15.8625 21.7535L2.329 9.3805C1.879 8.9655 1.9045 8.247 2.3825 7.8645C2.3825 7.8645 3.0445 7.2485 3.284 7.0775C3.652 6.815 4.1355 6.785 4.5 7.052Z" fill="#0288D1"/>
</svg>
