<svg width="24" height="24" viewBox="0 0 24 24" fill="none" xmlns="http://www.w3.org/2000/svg">
<path d="M13.8603 3.45209C12.9614 2.35641 12.1876 1.24381 12.0293 1.01269C12.0125 0.995769 11.9877 0.995769 11.9709 1.01269C11.8129 1.24381 11.0388 2.35641 10.1399 3.45209C2.42486 13.5598 11.3551 20.3811 11.3551 20.3811L11.4299 20.4324C11.4967 21.4851 11.663 23 11.663 23H11.9961H12.3288C12.3288 23 12.4955 21.4937 12.5619 20.4324L12.6367 20.3725C12.6451 20.3811 21.5754 13.5598 13.8603 3.45209ZM11.9961 20.2357C11.9961 20.2357 11.5966 19.8847 11.4883 19.7049V19.6877L11.9709 8.68131C11.9709 8.64718 12.0209 8.64718 12.0209 8.68131L12.5036 19.6877V19.7049C12.3955 19.8847 11.9961 20.2357 11.9961 20.2357Z" fill="#4D9580"/>
</svg>
