<svg width="17" height="17" viewBox="0 0 17 17" fill="none" xmlns="http://www.w3.org/2000/svg">
<path d="M3.37718 4.05225L4.39033 12.4951L1.68219 9.78698C1.28065 9.38543 1.17292 8.77518 1.41337 8.26051L3.37718 4.05225Z" fill="#72B0F6"/>
<path d="M9.22601 2.13343C8.94064 1.84806 8.55396 1.68799 8.15073 1.68799C7.89913 1.68799 7.65125 1.75047 7.42971 1.86968L3.37714 4.05199V10.9221C3.37714 11.2804 3.51931 11.6239 3.77294 11.8772L4.39028 12.4949H11.82V10.8063L14.184 7.09142L9.22601 2.13343Z" fill="#80C6FF"/>
<path d="M3.37714 4.05225H10.585C10.9433 4.05225 11.2867 4.19442 11.54 4.44805L14.184 7.09168V12.4951H11.82L3.37714 4.05225Z" fill="#72B0F6"/>
<path d="M11.82 12.4951H4.39026L6.41655 14.5214H11.82V12.4951Z" fill="#B5E0FC"/>
</svg>
