<svg width="24" height="24" viewBox="0 0 24 24" fill="none" xmlns="http://www.w3.org/2000/svg">
<path d="M23.7242 10.4235C23.6592 10.3725 23.0517 9.92 21.7702 9.92C21.4317 9.9215 21.0942 9.95 20.7607 10.0055C20.5127 8.3285 19.1512 7.5405 19.0882 7.504L18.7442 7.308L18.5177 7.63C18.2342 8.063 17.9837 8.51 17.8622 9.0115C17.6327 9.969 17.7722 10.868 18.2652 11.6365C17.6692 11.964 16.6537 11.993 16.4607 12H0.751697C0.338697 12.0005 0.00369681 12.33 0.00119681 12.737C-0.0173032 14.1035 0.177697 15.5135 0.654197 16.7965C1.1987 18.2055 2.0092 19.2435 3.0632 19.8785C4.2442 20.592 6.1632 21 8.3387 21C9.3212 21.003 10.3022 20.9155 11.2682 20.738C12.6112 20.4945 13.9037 20.0315 15.0917 19.368C16.0707 18.8085 16.9517 18.097 17.7012 17.2605C18.9537 15.8615 19.6997 14.304 20.2547 12.9195C20.3292 12.9195 20.4037 12.9195 20.4757 12.9195C21.8472 12.9195 22.6902 12.378 23.1552 11.9245C23.4642 11.635 23.7057 11.2825 23.8622 10.892L23.9607 10.608L23.7242 10.4235Z" fill="#72B0F6"/>
<path d="M3.9607 11.5H2.4607C2.1847 11.5 1.9607 11.276 1.9607 11V9.5C1.9607 9.224 2.1847 9 2.4607 9H3.9607C4.2367 9 4.4607 9.224 4.4607 9.5V11C4.4607 11.276 4.2367 11.5 3.9607 11.5Z" fill="#72B0F6"/>
<path d="M6.9607 11.5H5.4607C5.1847 11.5 4.9607 11.276 4.9607 11V9.5C4.9607 9.224 5.1847 9 5.4607 9H6.9607C7.2367 9 7.4607 9.224 7.4607 9.5V11C7.4607 11.276 7.2367 11.5 6.9607 11.5Z" fill="#72B0F6"/>
<path d="M9.9607 11.5H8.4607C8.1847 11.5 7.9607 11.276 7.9607 11V9.5C7.9607 9.224 8.1847 9 8.4607 9H9.9607C10.2367 9 10.4607 9.224 10.4607 9.5V11C10.4607 11.276 10.2367 11.5 9.9607 11.5Z" fill="#72B0F6"/>
<path d="M12.9607 11.5H11.4607C11.1847 11.5 10.9607 11.276 10.9607 11V9.5C10.9607 9.224 11.1847 9 11.4607 9H12.9607C13.2367 9 13.4607 9.224 13.4607 9.5V11C13.4607 11.276 13.2367 11.5 12.9607 11.5Z" fill="#72B0F6"/>
<path d="M6.9607 8.5H5.4607C5.1847 8.5 4.9607 8.276 4.9607 8V6.5C4.9607 6.224 5.1847 6 5.4607 6H6.9607C7.2367 6 7.4607 6.224 7.4607 6.5V8C7.4607 8.276 7.2367 8.5 6.9607 8.5Z" fill="#72B0F6"/>
<path d="M9.9607 8.5H8.4607C8.1847 8.5 7.9607 8.276 7.9607 8V6.5C7.9607 6.224 8.1847 6 8.4607 6H9.9607C10.2367 6 10.4607 6.224 10.4607 6.5V8C10.4607 8.276 10.2367 8.5 9.9607 8.5Z" fill="#72B0F6"/>
<path d="M12.9607 8.5H11.4607C11.1847 8.5 10.9607 8.276 10.9607 8V6.5C10.9607 6.224 11.1847 6 11.4607 6H12.9607C13.2367 6 13.4607 6.224 13.4607 6.5V8C13.4607 8.276 13.2367 8.5 12.9607 8.5Z" fill="#72B0F6"/>
<path d="M12.9607 5.5H11.4607C11.1847 5.5 10.9607 5.276 10.9607 5V3.5C10.9607 3.224 11.1847 3 11.4607 3H12.9607C13.2367 3 13.4607 3.224 13.4607 3.5V5C13.4607 5.276 13.2367 5.5 12.9607 5.5Z" fill="#72B0F6"/>
<path d="M15.9607 11.5H14.4607C14.1847 11.5 13.9607 11.276 13.9607 11V9.5C13.9607 9.224 14.1847 9 14.4607 9H15.9607C16.2367 9 16.4607 9.224 16.4607 9.5V11C16.4607 11.276 16.2367 11.5 15.9607 11.5Z" fill="#72B0F6"/>
</svg>
