<svg width="400" height="400" viewBox="0 0 400 400" fill="none" xmlns="http://www.w3.org/2000/svg">
<path d="M261.777 146.997C290.987 146.997 314.703 170.738 314.703 199.996C314.703 229.254 290.987 252.994 261.777 252.994C232.567 252.994 208.853 229.254 208.852 199.996C208.852 170.738 232.567 146.997 261.777 146.997Z" fill="url(#paint0_linear_11_3)" stroke="#24C0FE" stroke-width="5.99985"/>
<path d="M211.852 23H261.777C290.987 23 314.703 46.7409 314.703 75.999C314.703 105.257 290.987 128.997 261.777 128.997H211.852C210.195 128.997 208.852 127.654 208.852 125.997V26C208.852 24.3432 210.195 23 211.852 23Z" fill="url(#paint1_linear_11_3)" stroke="#FF7464" stroke-width="5.99985"/>
<path d="M137.927 270.994H187.853C189.509 270.994 190.852 272.337 190.852 273.994V323.992C190.852 353.25 167.137 376.991 137.927 376.991C108.717 376.991 85.0022 353.25 85.0022 323.992C85.0025 294.734 108.717 270.994 137.927 270.994Z" fill="url(#paint2_linear_11_3)" stroke="#0FD086" stroke-width="5.99985"/>
<path d="M137.927 146.997H187.853C189.509 146.998 190.852 148.341 190.852 149.997V249.994C190.852 251.651 189.509 252.994 187.853 252.994H137.927C108.717 252.994 85.0024 229.254 85.0022 199.996C85.0022 170.738 108.717 146.997 137.927 146.997Z" fill="url(#paint3_linear_11_3)" stroke="#A25CFC" stroke-width="5.99985"/>
<path d="M137.925 23H187.851C189.507 23.0002 190.85 24.3433 190.85 26V125.997C190.85 127.654 189.507 128.997 187.851 128.997H137.925C108.715 128.997 85.0003 105.257 85 75.999C85 46.741 108.715 23.0001 137.925 23Z" fill="url(#paint4_linear_11_3)" stroke="#F25121" stroke-width="5.99985"/>
<defs>
<linearGradient id="paint0_linear_11_3" x1="261.777" y1="143.997" x2="261.777" y2="255.995" gradientUnits="userSpaceOnUse">
<stop stop-color="#1ABCFE"/>
<stop offset="1" stop-color="#72D8FE"/>
</linearGradient>
<linearGradient id="paint1_linear_11_3" x1="261.777" y1="20" x2="261.777" y2="131.997" gradientUnits="userSpaceOnUse">
<stop stop-color="#FF7262"/>
<stop offset="1" stop-color="#F98578"/>
</linearGradient>
<linearGradient id="paint2_linear_11_3" x1="137.927" y1="267.994" x2="137.927" y2="379.991" gradientUnits="userSpaceOnUse">
<stop stop-color="#0ACF83"/>
<stop offset="1" stop-color="#64DFB0"/>
</linearGradient>
<linearGradient id="paint3_linear_11_3" x1="137.927" y1="143.997" x2="137.927" y2="255.995" gradientUnits="userSpaceOnUse">
<stop stop-color="#A259FF"/>
<stop offset="1" stop-color="#9F7DCB"/>
</linearGradient>
<linearGradient id="paint4_linear_11_3" x1="137.925" y1="20" x2="137.925" y2="131.997" gradientUnits="userSpaceOnUse">
<stop stop-color="#F24E1E"/>
<stop offset="1" stop-color="#F27A57"/>
</linearGradient>
</defs>
</svg>
