<svg width="30" height="30" viewBox="0 0 30 30" fill="none" xmlns="http://www.w3.org/2000/svg">
<path d="M30 10.5049L26.6815 12.3301L23.3629 15.4827V26.3012H28.0089C29.1087 26.3012 30 25.4098 30 24.3101V10.5049Z" fill="#0A0A0A"/>
<path d="M0 10.5049L2.39865 11.6398L6.63711 15.4827V26.3012H1.99113C0.891364 26.3012 0 25.4098 0 24.3101V10.5049Z" fill="#0A0A0A"/>
<path d="M22.3006 6.12354L14.9998 11.5992L7.69899 6.12354L7.03528 9.97306L7.69899 14.4199L14.9998 19.8955L22.3006 14.4199L22.9643 9.97306L22.3006 6.12354Z" fill="#0A0A0A"/>
<path d="M0 6.85263V9.44243L6.63711 14.4203V6.12388L4.56368 4.57013C4.06988 4.19978 3.46988 4 2.85263 4C1.27698 4 0 5.27698 0 6.85263Z" fill="#0A0A0A"/>
<path d="M30 6.85263V9.44243L23.3629 14.4203V6.12388L25.4363 4.57013C25.9301 4.19978 26.5301 4 27.1474 4C28.723 4 30 5.27698 30 6.85263Z" fill="#0A0A0A"/>
</svg>
