<svg width="24" height="24" viewBox="0 0 24 24" fill="none" xmlns="http://www.w3.org/2000/svg">
<path fill-rule="evenodd" clip-rule="evenodd" d="M14.3643 1C14.2002 1 14.0478 1.03489 13.9071 1.08141C14.206 1.27912 14.3702 1.5408 14.4522 1.83737C14.4581 1.87807 14.4698 1.90715 14.4757 1.94785C14.4816 1.98274 14.4874 2.01763 14.4874 2.05252C14.5109 2.56424 14.3526 2.62821 14.2412 2.93059C14.0712 3.3202 14.1181 3.73888 14.3233 4.07616C14.3409 4.11686 14.3643 4.16338 14.3936 4.20408C14.1709 2.73288 15.4077 2.51191 15.6363 2.05252C15.6538 1.65128 15.3197 1.38379 15.056 1.19771C14.8039 1.04652 14.5753 1 14.3643 1ZM16.2283 1.33146C16.2048 1.4652 16.2224 1.43031 16.2166 1.50009C16.2107 1.54661 16.2107 1.60476 16.2048 1.65128C16.1931 1.6978 16.1814 1.74432 16.1638 1.79085C16.1521 1.83737 16.1345 1.88389 16.1169 1.93041C16.0935 1.97693 16.0759 2.01763 16.0524 2.06415C16.0349 2.08742 16.0231 2.11067 16.0056 2.13393C15.9938 2.15138 15.9821 2.16882 15.9704 2.18627C15.9411 2.22697 15.9118 2.26768 15.8825 2.30257C15.8473 2.33746 15.818 2.37816 15.777 2.40724V2.41306C15.7418 2.44214 15.7066 2.47703 15.6656 2.5061C15.5425 2.59914 15.4018 2.66892 15.2729 2.75615C15.2318 2.78522 15.1908 2.80849 15.1556 2.84338C15.1146 2.87245 15.0794 2.90152 15.0443 2.93641C15.0032 2.9713 14.9739 3.0062 14.9388 3.0469C14.9094 3.08179 14.8743 3.1225 14.8508 3.1632C14.8215 3.20391 14.7922 3.24461 14.7688 3.28532C14.7453 3.33184 14.7277 3.37254 14.7043 3.41906C14.6867 3.46558 14.6691 3.50629 14.6574 3.55281C14.6398 3.60514 14.6281 3.65166 14.6164 3.69819C14.6105 3.72146 14.6105 3.75052 14.6047 3.77378C14.5988 3.79705 14.5988 3.8203 14.5929 3.84356C14.5929 3.89008 14.5871 3.94242 14.5871 3.98894C14.5871 4.02383 14.5871 4.05872 14.5929 4.09361C14.5929 4.14013 14.5988 4.18665 14.6105 4.23898C14.6164 4.2855 14.6281 4.33202 14.6398 4.37855C14.6574 4.42506 14.6691 4.47158 14.6867 4.5181C14.6984 4.54718 14.716 4.57626 14.7278 4.59951L13.3796 4.08198C13.151 4.01801 12.9283 3.95986 12.6997 3.90753C12.5766 3.87845 12.4535 3.84938 12.3304 3.8203C11.9787 3.75052 11.6211 3.69819 11.2636 3.6633C11.2519 3.6633 11.246 3.65747 11.2343 3.65747C10.8826 3.62258 10.5367 3.60514 10.1851 3.60514C9.92714 3.60514 9.66923 3.61676 9.41718 3.63421C9.05963 3.65748 8.70207 3.70399 8.34452 3.76214C8.2566 3.77376 8.16867 3.79122 8.08075 3.80867C7.89904 3.84355 7.7232 3.88426 7.55321 3.92496C7.46529 3.94823 7.37736 3.97149 7.28944 3.99474C7.20152 4.02963 7.11946 4.07034 7.03739 4.10523C6.97291 4.1343 6.90844 4.16338 6.84396 4.19246C6.83225 4.19828 6.82051 4.19828 6.81465 4.20408C6.75604 4.23315 6.70328 4.25641 6.65053 4.28549C6.63295 4.29131 6.62122 4.29711 6.6095 4.30293C6.54502 4.33201 6.48055 4.3669 6.42779 4.39597C6.38676 4.41342 6.34573 4.43668 6.31056 4.45413C6.29298 4.46575 6.26953 4.47739 6.25781 4.4832C6.20505 4.51227 6.1523 4.54135 6.10541 4.57043C6.05265 4.5995 6.00576 4.62857 5.96473 4.65765C5.9237 4.68673 5.88267 4.70998 5.8475 4.73906C5.84162 4.74488 5.83578 4.74488 5.82991 4.75068C5.79474 4.77395 5.75371 4.80301 5.71854 4.83209C5.71854 4.83209 5.71267 4.83791 5.70683 4.84371C5.67752 4.86698 5.64821 4.89023 5.61891 4.91349C5.60719 4.91932 5.59545 4.93094 5.58374 4.93676C5.55443 4.96003 5.52512 4.9891 5.49581 5.01236C5.48994 5.02398 5.47823 5.0298 5.47236 5.03563C5.43719 5.07052 5.40202 5.09959 5.36685 5.13448C5.36098 5.13448 5.36098 5.14031 5.35514 5.1461C5.31997 5.17518 5.2848 5.21007 5.24963 5.24496C5.24376 5.25078 5.24376 5.25658 5.23791 5.25658C5.20861 5.28565 5.1793 5.31473 5.14999 5.34962C5.13828 5.36124 5.12068 5.37289 5.10896 5.38451C5.07965 5.4194 5.04448 5.45429 5.00931 5.48918C5.00344 5.5008 4.99173 5.50663 4.98586 5.51826C4.93897 5.56478 4.89793 5.6113 4.85104 5.65782C4.84517 5.66364 4.83933 5.66944 4.83346 5.67526C4.73967 5.77412 4.64002 5.87297 4.53452 5.9602C4.42901 6.05324 4.31764 6.14047 4.20627 6.21606C4.08904 6.29747 3.97767 6.36725 3.85458 6.43703C3.73735 6.501 3.61425 6.55915 3.4853 6.61148C3.36221 6.66382 3.23325 6.71034 3.1043 6.75104C2.85811 6.80338 2.60606 6.90223 2.38919 6.91968C2.3423 6.91968 2.28954 6.9313 2.24265 6.93712C2.1899 6.94875 2.143 6.96039 2.09611 6.97202C2.04922 6.98946 2.00233 7.00691 1.95543 7.02435C1.90854 7.0418 1.86165 7.06506 1.81476 7.08832C1.77373 7.11739 1.72683 7.14065 1.6858 7.16973C1.64477 7.1988 1.60374 7.23369 1.56857 7.26858C1.52754 7.29766 1.48651 7.33836 1.45134 7.37325C1.41617 7.41396 1.381 7.44885 1.35169 7.48955C1.32239 7.53607 1.28722 7.57678 1.26377 7.6233C1.23446 7.66401 1.20515 7.71053 1.18171 7.75704C1.15825 7.80938 1.13482 7.8559 1.11723 7.90824C1.09965 7.95476 1.08206 8.00709 1.06448 8.05943C1.05276 8.10595 1.04102 8.15247 1.03517 8.19899C1.03517 8.20482 1.0293 8.21061 1.0293 8.21643C1.01758 8.26877 1.01758 8.33855 1.01171 8.37344C1.00584 8.41415 1 8.44903 1 8.48974C1 8.51301 1 8.54208 1.00587 8.56534C1.01174 8.60604 1.01758 8.64093 1.02933 8.67583C1.04104 8.71071 1.05278 8.7456 1.07036 8.78049V8.78632C1.08794 8.82121 1.11139 8.8561 1.13483 8.89099C1.15829 8.92588 1.18173 8.96077 1.21103 8.99566C1.24034 9.02474 1.27551 9.05962 1.31068 9.0887C1.34585 9.12359 1.38102 9.15266 1.42205 9.18174C1.56273 9.30385 1.5979 9.34456 1.7796 9.4376C1.80891 9.45505 1.83822 9.46668 1.87339 9.48412C1.87926 9.48412 1.8851 9.48994 1.89098 9.48994C1.89098 9.50156 1.89098 9.50739 1.89685 9.51902C1.90272 9.56554 1.91443 9.61206 1.92615 9.65858C1.93787 9.71092 1.95546 9.75744 1.97305 9.79814C1.99063 9.83303 2.00236 9.86792 2.01994 9.90281C2.02581 9.91444 2.03166 9.92608 2.03753 9.93189C2.06098 9.97841 2.08442 10.0191 2.10786 10.0598C2.13717 10.1005 2.16648 10.1412 2.19579 10.1819C2.22509 10.2168 2.26026 10.2575 2.29543 10.2924C2.3306 10.3273 2.36577 10.3564 2.4068 10.3913C2.4068 10.3913 2.41268 10.3971 2.41852 10.3971C2.45369 10.4262 2.48886 10.4553 2.52403 10.4785C2.56506 10.5076 2.60609 10.5309 2.65298 10.5541C2.69401 10.5774 2.7409 10.6006 2.7878 10.6181C2.82297 10.6355 2.86399 10.6472 2.90503 10.6588C2.9109 10.6646 2.91674 10.6646 2.92848 10.6704C2.95194 10.6762 2.98123 10.682 3.00468 10.6878C2.9871 11.0019 2.98123 11.2984 3.02814 11.4031C3.08089 11.5194 3.3388 11.1647 3.59671 10.7576C3.56154 11.1589 3.53809 11.6299 3.59671 11.7694C3.66118 11.9148 4.01288 11.4612 4.31768 10.9612C8.47352 10.0075 12.2659 12.8569 12.6645 16.8809C12.5883 16.2528 11.8087 15.9039 11.4512 15.9912C11.2753 16.4215 10.9764 16.9739 10.4958 17.317C10.5368 16.9332 10.5192 16.5378 10.4371 16.154C10.3082 16.689 10.0561 17.1891 9.71031 17.6194C9.15346 17.6601 8.59661 17.3926 8.30353 16.9913C8.28008 16.9739 8.27423 16.939 8.25664 16.9158C8.23906 16.875 8.22147 16.8343 8.20975 16.7936C8.19216 16.7529 8.18044 16.7122 8.17458 16.6715C8.16871 16.6308 8.16871 16.5901 8.16871 16.5436C8.16871 16.5145 8.16871 16.4854 8.16871 16.4564C8.17458 16.4157 8.18629 16.375 8.19802 16.3342C8.20973 16.2935 8.22147 16.2528 8.23905 16.2121C8.2625 16.1714 8.28008 16.1307 8.30939 16.09C8.40903 15.8109 8.40903 15.5841 8.22733 15.4504C8.19216 15.4271 8.15699 15.4097 8.11595 15.3922C8.0925 15.3864 8.0632 15.3748 8.03976 15.3689C8.02217 15.3631 8.01045 15.3573 7.99286 15.3515C7.95183 15.3399 7.9108 15.3282 7.86977 15.3224C7.82874 15.3108 7.78771 15.305 7.74668 15.305C7.70565 15.2991 7.65875 15.2934 7.61772 15.2934C7.58842 15.2934 7.55911 15.2992 7.5298 15.2992C7.48291 15.2992 7.44187 15.305 7.40085 15.3166C7.35981 15.3225 7.31878 15.3282 7.27775 15.3399C7.23672 15.3515 7.19569 15.3632 7.15466 15.3806C7.11363 15.398 7.07846 15.4155 7.03743 15.4329C7.00226 15.4504 6.96709 15.4736 6.92606 15.4911C5.56032 16.375 6.37507 18.4451 7.30706 19.0441C6.95537 19.108 6.59781 19.1836 6.49817 19.2592C6.4923 19.265 6.48645 19.2708 6.48645 19.2708C6.7385 19.422 7.00227 19.55 7.27776 19.6605C7.6529 19.7826 8.05149 19.8931 8.22733 19.9396V19.9454C8.71384 20.0443 9.20621 20.0791 9.70445 20.0501C12.3011 19.8698 14.4289 17.9101 14.8157 15.3283C14.8274 15.3806 14.8392 15.4271 14.8509 15.4795C14.8685 15.5841 14.8919 15.6946 14.9036 15.8051V15.8109C14.9154 15.8633 14.9212 15.9156 14.9271 15.9621V15.9854C14.933 16.0377 14.9388 16.0901 14.9388 16.1366C14.9447 16.2005 14.9505 16.2645 14.9505 16.3285V16.4215C14.9505 16.4506 14.9564 16.4855 14.9564 16.5146C14.9564 16.5494 14.9505 16.5843 14.9505 16.6192V16.7006C14.9505 16.7413 14.9447 16.7762 14.9447 16.8169C14.9447 16.8402 14.9447 16.8635 14.9388 16.8925C14.9388 16.9332 14.9329 16.9739 14.9329 17.0205C14.927 17.0379 14.927 17.0554 14.927 17.0728C14.9212 17.1193 14.9153 17.16 14.9095 17.2065C14.9095 17.224 14.9095 17.2414 14.9036 17.2589C14.8977 17.317 14.886 17.3694 14.8801 17.4275V17.4333V17.4392C14.8684 17.4915 14.8567 17.5497 14.845 17.602V17.6194C14.8332 17.6718 14.8215 17.7241 14.8098 17.7764C14.8098 17.7823 14.8039 17.7939 14.8039 17.7997C14.7922 17.852 14.7805 17.9044 14.7629 17.9567V17.9742C14.7453 18.0323 14.7277 18.0846 14.716 18.137C14.7101 18.1428 14.7101 18.1486 14.7101 18.1486C14.6925 18.2068 14.675 18.2649 14.6574 18.3231C14.6339 18.3812 14.6163 18.4335 14.5929 18.4917C14.5694 18.5498 14.5519 18.608 14.5284 18.6603C14.505 18.7185 14.4815 18.7708 14.4581 18.829H14.4522C14.4287 18.8813 14.4053 18.9394 14.376 18.9918C14.3701 19.0092 14.3643 19.0209 14.3584 19.0325C14.3525 19.0383 14.3525 19.0441 14.3467 19.0499C13.9657 19.8117 13.403 20.4804 12.6996 21.0038C12.6527 21.0329 12.6058 21.0677 12.5589 21.1026C12.5472 21.1143 12.5296 21.1201 12.5179 21.1317C12.4769 21.1608 12.4358 21.1899 12.3889 21.2189L12.4065 21.2538H12.4124C12.4945 21.2422 12.5765 21.2306 12.6586 21.2189H12.6645C12.8169 21.1957 12.9693 21.1666 13.1217 21.1375C13.1627 21.1317 13.2096 21.1201 13.2506 21.1084C13.2799 21.1026 13.3034 21.0968 13.3327 21.091C13.3737 21.0852 13.4147 21.0736 13.4558 21.0677C13.4909 21.0561 13.5261 21.0503 13.5613 21.0387C14.1474 20.8991 14.716 20.7072 15.2611 20.4804C14.3291 21.7423 13.0806 22.7599 11.6211 23.4286C12.2952 23.3821 12.9693 23.2716 13.6199 23.0856C15.9821 22.3936 17.9692 20.8177 19.1591 18.6952C18.9187 20.0385 18.3795 21.3178 17.5823 22.4343C18.1509 22.0621 18.6725 21.6318 19.1473 21.1433C20.4603 19.7826 21.322 18.0556 21.615 16.2006C21.8143 17.1193 21.873 18.0672 21.785 19.0034C26.0171 13.1477 22.1367 7.07676 20.5131 5.47763C20.5072 5.46601 20.5014 5.46018 20.5014 5.44855C20.4955 5.45438 20.4955 5.45438 20.4955 5.46017C20.4955 5.45435 20.4955 5.45435 20.4896 5.44855C20.4896 5.51833 20.4837 5.58811 20.4779 5.65789C20.4603 5.79164 20.4427 5.91957 20.4193 6.0475C20.39 6.17543 20.3548 6.30336 20.3196 6.43129C20.2786 6.55341 20.2317 6.68134 20.179 6.80346C20.1262 6.91975 20.0676 7.04187 20.0031 7.15817C19.9386 7.26866 19.8683 7.38496 19.7921 7.48963C19.7159 7.60012 19.6338 7.70479 19.5518 7.80364C19.4639 7.90831 19.3701 8.00135 19.2763 8.09439C19.2177 8.14673 19.1649 8.19325 19.1063 8.23977C19.0594 8.28047 19.0184 8.31537 18.9715 8.35607C18.866 8.43748 18.7605 8.51308 18.6432 8.58286C18.5319 8.65264 18.4146 8.72242 18.2974 8.78057C18.1743 8.83872 18.0512 8.89105 17.9281 8.94339C17.805 8.98991 17.6761 9.03061 17.5471 9.0655C17.4182 9.10039 17.2834 9.12947 17.1544 9.15273C17.0196 9.176 16.8848 9.18762 16.7558 9.19925C16.662 9.20507 16.5682 9.21087 16.4745 9.21087C16.3396 9.21087 16.2048 9.19925 16.0759 9.1876C15.9411 9.17598 15.8062 9.15852 15.6773 9.12945C15.5425 9.10618 15.4135 9.0713 15.2846 9.0306H15.2787C15.4076 9.01898 15.5366 9.00732 15.6656 8.98407C15.8004 8.9608 15.9293 8.93174 16.0583 8.89685C16.1872 8.86196 16.3162 8.82125 16.4393 8.77473C16.5682 8.72821 16.6913 8.67006 16.8086 8.61191C16.9317 8.55376 17.043 8.4898 17.1603 8.42002C17.2716 8.34442 17.383 8.26883 17.4885 8.18741C17.594 8.106 17.6937 8.01878 17.7874 7.92574C17.8871 7.83851 17.975 7.73966 18.0629 7.6408C18.1509 7.53613 18.2329 7.43146 18.3091 7.32679C18.3208 7.30934 18.3326 7.28609 18.3443 7.26864C18.4029 7.1756 18.4615 7.08256 18.5143 6.98952C18.5788 6.87322 18.6374 6.75691 18.6901 6.6348C18.7429 6.51268 18.7898 6.39057 18.8308 6.26264C18.8718 6.14052 18.9011 6.01259 18.9304 5.88466C18.9539 5.75092 18.9773 5.62298 18.9891 5.49505C19.0008 5.36131 19.0125 5.22756 19.0125 5.09963C19.0125 5.00659 19.0066 4.91355 19.0008 4.82051C18.9891 4.68677 18.9715 4.55883 18.9539 4.4309C18.9305 4.29716 18.9012 4.16923 18.866 4.04129C18.825 3.91918 18.7839 3.79125 18.737 3.66913C18.6901 3.54702 18.6315 3.4249 18.5729 3.3086C18.5084 3.1923 18.444 3.076 18.3736 2.96551C18.2974 2.85503 18.2212 2.75036 18.1392 2.64569C18.0512 2.54683 17.9633 2.44798 17.8695 2.34912C17.8226 2.3026 17.7699 2.25027 17.7171 2.20375C17.4534 2.00022 17.1779 1.80832 16.9024 1.63387C16.8613 1.6106 16.8262 1.59317 16.7851 1.57572C16.5917 1.45361 16.41 1.38961 16.2283 1.33146Z" fill="#E64F71"/>
</svg>
