<svg width="63" height="63" viewBox="0 0 63 63" fill="none" xmlns="http://www.w3.org/2000/svg">
<path d="M45.5 38.1094H32V42.6094H45.5C46.7187 42.6094 47.7734 42.1641 48.6641 41.2735C49.5547 40.3828 50 39.3281 50 38.1094V33.6094C50 32.3907 49.5547 31.336 48.6641 30.4453C47.7734 29.5547 46.7187 29.1094 45.5 29.1094H36.5V24.6094H50V20.1094H36.5C35.2813 20.1094 34.2266 20.5547 33.3359 21.4453C32.4453 22.336 32 23.3907 32 24.6094V29.1094C32 30.3281 32.4453 31.3828 33.3359 32.2735C34.2266 33.1641 35.2813 33.6094 36.5 33.6094H45.5V38.1094ZM59 15.6094L32 0L5 15.6094V46.7578L13.7891 51.8203L25.25 45.211C25.9531 44.7891 26.5039 44.2383 26.9023 43.5586C27.3008 42.8789 27.5 42.1407 27.5 41.3438V20.1094H23V41.3438L13.7891 46.6172L9.5 44.1563V18.211L32 5.2031L54.5 18.211V44.1563L32 57.1641L22.7891 51.8203L18.2891 54.4219L32 62.3672L59 46.7578V15.6094Z" fill="#ACD977"/>
</svg>
