<svg width="24" height="24" viewBox="0 0 24 24" fill="none" xmlns="http://www.w3.org/2000/svg">
<g clip-path="url(#clip0_127_64)">
<path d="M13.5284 0.0977475C11.1743 -0.20456 8.78347 0.198014 6.65814 1.25456C4.53284 2.31111 2.76858 3.97417 1.58847 6.03343C0.408364 8.09272 -0.134581 10.4557 0.0282958 12.8235C0.191173 15.1913 1.05256 17.4577 2.50352 19.336C3.95447 21.2143 5.92984 22.6201 8.1798 23.3757C10.4297 24.1313 12.8532 24.2027 15.1438 23.5809C17.4343 22.9591 19.4891 21.672 21.0481 19.8824C22.6071 18.0928 23.6004 15.8811 23.9024 13.5269C24.3073 10.3705 23.4419 7.18243 21.4964 4.66402C19.551 2.1456 16.6849 0.503086 13.5284 0.0977475Z" fill="#F38D70"/>
<path d="M8.67562 12.7584C8.68027 12.7679 8.68814 12.7755 8.69774 12.7799C8.70734 12.7843 8.71822 12.7852 8.72842 12.7824L10.6484 12.3684L9.84082 11.55L8.69002 12.7008C8.68095 12.707 8.67449 12.7162 8.67179 12.7268C8.66917 12.7375 8.67052 12.7487 8.67562 12.7584Z" fill="white"/>
<path d="M17.666 4.51441C17.3985 4.51468 17.1343 4.57497 16.8931 4.69082C16.652 4.80667 16.4398 4.97515 16.2724 5.18384C16.105 5.39253 15.9864 5.63612 15.9256 5.89668C15.8647 6.15724 15.8631 6.42812 15.9208 6.6894C15.9784 6.95068 16.094 7.19569 16.2589 7.40639C16.4239 7.61708 16.6339 7.78816 16.8737 7.90688C17.1135 8.02568 17.3768 8.08913 17.6443 8.09266C17.9119 8.09618 18.1768 8.03963 18.4196 7.92721L17.2028 6.71041C17.1889 6.69648 17.1778 6.67993 17.1702 6.6617C17.1627 6.64348 17.1588 6.62394 17.1588 6.60421C17.1588 6.58448 17.1627 6.56494 17.1702 6.54672C17.1778 6.52849 17.1889 6.51194 17.2028 6.49801L18.7928 4.90921C18.4735 4.65247 18.0757 4.51311 17.666 4.51441Z" fill="white"/>
<path d="M19.0112 5.1156L17.5208 6.6L18.6896 7.7688C18.7757 7.70835 18.856 7.64003 18.9296 7.5648C19.2499 7.2423 19.4364 6.81054 19.4515 6.35624C19.4667 5.90192 19.3093 5.45871 19.0112 5.1156Z" fill="white"/>
<path d="M16.0292 7.85521H16.0028C15.9718 7.85498 15.9409 7.85776 15.9104 7.86361H15.8996C15.8662 7.87081 15.8333 7.88041 15.8012 7.89241L15.776 7.90441C15.7519 7.91446 15.7286 7.92653 15.7064 7.94041L15.68 7.95721C15.651 7.97723 15.6237 7.99973 15.5984 8.02441L11.1788 12.4452L11.726 12.9924L16.406 8.88481C16.4325 8.86163 16.4566 8.83591 16.478 8.80801L16.4984 8.78161C16.5144 8.75821 16.5289 8.73376 16.5416 8.70841C16.5488 8.69401 16.5548 8.67961 16.5608 8.66521C16.5689 8.64608 16.5757 8.62643 16.5812 8.60641C16.5812 8.59201 16.5896 8.57761 16.5932 8.56321C16.5992 8.53351 16.6031 8.50343 16.6052 8.47321V8.43361C16.6052 8.41201 16.6052 8.39041 16.6052 8.36881C16.6052 8.34721 16.6052 8.34001 16.5992 8.32561C16.577 8.21236 16.5218 8.10826 16.4404 8.02643C16.359 7.94461 16.2551 7.88881 16.142 7.86601H16.1192C16.0895 7.86031 16.0594 7.85671 16.0292 7.85521Z" fill="white"/>
<path d="M10.0472 11.3376L10.9544 12.24L15.386 7.8084C15.5303 7.6674 15.7181 7.5798 15.9188 7.56C15.1352 6.96 14.2808 7.1172 10.0472 11.3376Z" fill="white"/>
<path d="M16.6556 9.0576L16.6016 9.1104L11.9216 13.2168L12.7172 14.0112C14.69 12.1452 16.4408 10.368 16.6556 9.0576Z" fill="white"/>
<path d="M4.98208 18.678C4.98451 18.6865 4.9895 18.6941 4.99636 18.6996C5.00323 18.7052 5.01165 18.7085 5.02048 18.7092L7.06047 18.8496L5.91687 17.706L4.99168 18.63C4.98568 18.6362 4.98159 18.6441 4.97989 18.6526C4.97819 18.6611 4.97895 18.6699 4.98208 18.678Z" fill="white"/>
<path d="M6.13046 17.4936L7.33645 18.6996C7.35077 18.7149 7.36992 18.7248 7.39068 18.7276C7.41144 18.7305 7.43255 18.7261 7.45045 18.7152C7.46915 18.7059 7.48403 18.6904 7.49258 18.6714C7.50113 18.6523 7.50278 18.6309 7.49725 18.6108L7.29445 17.7444C7.28132 17.6882 7.28729 17.6293 7.31141 17.5769C7.33553 17.5246 7.37644 17.4817 7.42765 17.4552C9.54203 16.3956 11.2472 15.3048 12.4988 14.2152L11.6588 13.3752L9.85882 13.7628L6.13046 17.4936Z" fill="white"/>
<path d="M11.4008 13.1208L10.9496 12.6696L10.3256 13.2924C10.3211 13.2978 10.3186 13.3046 10.3186 13.3116C10.3186 13.3187 10.3211 13.3254 10.3256 13.3308C10.3285 13.3372 10.3336 13.3424 10.3401 13.3452C10.3465 13.3481 10.3537 13.3485 10.3604 13.3464L11.4008 13.1208Z" fill="white"/>
<path d="M19.0532 6.08279C19.0471 6.06391 19.037 6.04656 19.0235 6.03191C19.0102 6.01727 18.9938 6.00566 18.9755 5.99787C18.9572 5.99008 18.9375 5.98629 18.9176 5.98676C18.8978 5.98723 18.8783 5.99195 18.8603 6.00059C18.8425 6.00923 18.8267 6.02159 18.8139 6.03686C18.8012 6.05212 18.7919 6.06992 18.7867 6.08908C18.7814 6.10823 18.7803 6.1283 18.7835 6.14791C18.7866 6.16752 18.7939 6.18623 18.8048 6.20279C18.8407 6.27496 18.8549 6.35596 18.8458 6.43602C18.8366 6.51608 18.8045 6.59178 18.7532 6.65399C18.7364 6.67432 18.7257 6.699 18.7224 6.72518C18.719 6.75136 18.7232 6.77795 18.7344 6.80184C18.7456 6.82574 18.7634 6.84596 18.7856 6.86015C18.8078 6.87434 18.8337 6.88192 18.86 6.88199C18.8804 6.88178 18.9005 6.87716 18.919 6.86846C18.9374 6.85976 18.9537 6.84719 18.9668 6.83159C19.0518 6.72833 19.1051 6.60275 19.1204 6.46993C19.1357 6.33711 19.1124 6.20269 19.0532 6.08279Z" fill="#F38D70"/>
</g>
<defs>
<clipPath id="clip0_127_64">
<rect width="24" height="24" fill="white"/>
</clipPath>
</defs>
</svg>
