<svg width="9" height="9" viewBox="0 0 9 9" fill="none" xmlns="http://www.w3.org/2000/svg">
<path d="M4.06897 0.264011C4.10253 0.173322 4.2308 0.173322 4.26436 0.264011L5.27542 2.99637C5.28597 3.02488 5.30845 3.04736 5.33697 3.05791L8.06932 4.06897C8.16001 4.10253 8.16001 4.2308 8.06932 4.26436L5.33697 5.27542C5.30845 5.28597 5.28597 5.30845 5.27542 5.33697L4.26436 8.06932C4.2308 8.16001 4.10253 8.16001 4.06897 8.06932L3.05791 5.33697C3.04736 5.30845 3.02488 5.28597 2.99637 5.27542L0.264011 4.26436C0.173322 4.2308 0.173322 4.10253 0.264011 4.06897L2.99637 3.05791C3.02488 3.04736 3.04736 3.02488 3.05791 2.99637L4.06897 0.264011Z" fill="#585858"/>
</svg>
