<svg width="17" height="17" viewBox="0 0 17 17" fill="none" xmlns="http://www.w3.org/2000/svg">
<path d="M5.40344 8.10439C5.40344 4.37409 6.61304 1.3501 8.10515 1.3501C9.59724 1.3501 10.8069 4.37409 10.8069 8.10439C10.8069 11.8346 9.59724 14.8587 8.10515 14.8587C6.61304 14.8587 5.40344 11.8346 5.40344 8.10439Z" stroke="#7CD5F1" stroke-width="1.01314"/>
<path d="M6.73768 5.82134C10.0081 3.95619 13.2716 3.49173 14.0269 4.78394C14.7822 6.07615 12.7432 8.63571 9.47276 10.5008C6.20234 12.366 2.93885 12.8305 2.18358 11.5382C1.4283 10.246 3.46724 7.68646 6.73768 5.82134Z" stroke="#7CD5F1" stroke-width="1.01314"/>
<path d="M9.47276 5.82134C12.7432 7.68646 14.7822 10.246 14.0269 11.5382C13.2716 12.8305 10.0081 12.366 6.73768 10.5008C3.46724 8.63571 1.4283 6.07615 2.18358 4.78394C2.93885 3.49173 6.20234 3.95619 9.47276 5.82134Z" stroke="#7CD5F1" stroke-width="1.01314"/>
<path d="M9.11833 8.10445C9.11833 8.66398 8.66471 9.1176 8.10518 9.1176C7.54566 9.1176 7.09204 8.66398 7.09204 8.10445C7.09204 7.54493 7.54566 7.09131 8.10518 7.09131C8.66471 7.09131 9.11833 7.54493 9.11833 8.10445Z" stroke="#7CD5F1" stroke-width="1.01314"/>
</svg>
