<svg width="51" height="51" viewBox="0 0 51 51" fill="none" xmlns="http://www.w3.org/2000/svg">
<path d="M32.2548 33.2967L25.6244 26.7256L13.9185 26.7256C12.8186 26.7256 11.7342 26.9853 10.7537 27.4836L9.5033 28.1191C8.92664 28.4121 8.39347 28.7839 7.91908 29.2236L0.523762 36.0791L13.1333 36.0791L13.9502 34.772C14.192 34.3851 14.5152 34.0556 14.8973 33.8064C15.4073 33.4738 16.0031 33.2967 16.6119 33.2967L32.2548 33.2967Z" fill="#555555"/>
<path d="M32.2548 16.6022L25.6244 23.1733L13.9185 23.1733C12.8186 23.1733 11.7342 22.9136 10.7537 22.4153L9.5033 21.7799C8.92664 21.4868 8.39347 21.1151 7.91908 20.6753L0.523761 13.8198L13.1333 13.8198L13.9503 15.127C14.192 15.5138 14.5152 15.8433 14.8973 16.0925C15.4073 16.4251 16.0031 16.6022 16.6119 16.6022L32.2548 16.6022Z" fill="#555555"/>
<path d="M18.769 36.6119L25.3994 43.1831L37.1053 43.1831C38.2052 43.1831 39.2896 42.9234 40.2701 42.4251L41.5205 41.7896C42.0972 41.4966 42.6303 41.1248 43.1047 40.6851L50.5 33.8296L37.8905 33.8296L37.0736 35.1367C36.8318 35.5236 36.5086 35.853 36.1265 36.1022C35.6165 36.4349 35.0207 36.6119 34.4119 36.6119L18.769 36.6119Z" fill="#ACD977"/>
<path d="M18.769 13.1688L25.3993 6.59766L37.1053 6.59766C38.2052 6.59766 39.2895 6.85738 40.2701 7.35569L41.5204 7.99112C42.0971 8.28418 42.6303 8.65592 43.1047 9.09568L50.5 15.9512L37.8905 15.9512L37.0735 14.644C36.8317 14.2572 36.5085 13.9277 36.1264 13.6785C35.6164 13.3459 35.0207 13.1688 34.4118 13.1688L18.769 13.1688Z" fill="#ACD977"/>
</svg>
