<svg id="svgQrWrapper" viewBox="0 0 300 300" xmlns="http://www.w3.org/2000/svg" xmlns:xlink="http://www.w3.org/1999/xlink" width="300" height="300" style="width: 100%; height: 100%; background-color: rgb(255, 255, 255);"><svg><g transform="translate(9, 9)scale(0.95)" fill="none"><svg width="300" height="300"><style>.background-color{ fill: #fff; }.dot-color{ fill: #000000; }.corners-square-color-0-0{ fill: #000000; }.corners-dot-color-0-0{ fill: #000000; }.corners-square-color-1-0{ fill: #000000; }.corners-dot-color-1-0{ fill: #000000; }.corners-square-color-0-1{ fill: #000000; }.corners-dot-color-0-1{ fill: #000000; }</style><defs/><g class="dot-color"><path d="M 6.428571428571429 116.42857142857143v 7.142857142857143h 7.142857142857143v -7.142857142857143z" transform="rotate(0,10,120)"/><path d="M 6.428571428571429 126.42857142857143v 7.142857142857143h 7.142857142857143v -7.142857142857143z" transform="rotate(0,10,130)"/><path d="M 6.428571428571429 136.42857142857142v 7.142857142857143h 7.142857142857143v -7.142857142857143z" transform="rotate(0,10,140)"/><path d="M 6.428571428571429 156.42857142857142v 7.142857142857143h 7.142857142857143v -7.142857142857143z" transform="rotate(0,10,160)"/><path d="M 6.428571428571429 206.42857142857142v 7.142857142857143h 7.142857142857143v -7.142857142857143z" transform="rotate(0,10,210)"/><path d="M 16.428571428571427 96.42857142857143v 7.142857142857143h 7.142857142857143v -7.142857142857143z" transform="rotate(0,20,100)"/><path d="M 16.428571428571427 146.42857142857142v 7.142857142857143h 7.142857142857143v -7.142857142857143z" transform="rotate(0,20,150)"/><path d="M 16.428571428571427 176.42857142857142v 7.142857142857143h 7.142857142857143v -7.142857142857143z" transform="rotate(0,20,180)"/><path d="M 16.428571428571427 186.42857142857142v 7.142857142857143h 7.142857142857143v -7.142857142857143z" transform="rotate(0,20,190)"/><path d="M 16.428571428571427 206.42857142857142v 7.142857142857143h 7.142857142857143v -7.142857142857143z" transform="rotate(0,20,210)"/><path d="M 26.428571428571427 96.42857142857143v 7.142857142857143h 7.142857142857143v -7.142857142857143z" transform="rotate(0,30,100)"/><path d="M 26.428571428571427 106.42857142857143v 7.142857142857143h 7.142857142857143v -7.142857142857143z" transform="rotate(0,30,110)"/><path d="M 26.428571428571427 116.42857142857143v 7.142857142857143h 7.142857142857143v -7.142857142857143z" transform="rotate(0,30,120)"/><path d="M 26.428571428571427 126.42857142857143v 7.142857142857143h 7.142857142857143v -7.142857142857143z" transform="rotate(0,30,130)"/><path d="M 26.428571428571427 146.42857142857142v 7.142857142857143h 7.142857142857143v -7.142857142857143z" transform="rotate(0,30,150)"/><path d="M 26.428571428571427 156.42857142857142v 7.142857142857143h 7.142857142857143v -7.142857142857143z" transform="rotate(0,30,160)"/><path d="M 26.428571428571427 176.42857142857142v 7.142857142857143h 7.142857142857143v -7.142857142857143z" transform="rotate(0,30,180)"/><path d="M 26.428571428571427 186.42857142857142v 7.142857142857143h 7.142857142857143v -7.142857142857143z" transform="rotate(0,30,190)"/><path d="M 26.428571428571427 196.42857142857142v 7.142857142857143h 7.142857142857143v -7.142857142857143z" transform="rotate(0,30,200)"/><path d="M 26.428571428571427 206.42857142857142v 7.142857142857143h 7.142857142857143v -7.142857142857143z" transform="rotate(0,30,210)"/><path d="M 36.42857142857143 86.42857142857143v 7.142857142857143h 7.142857142857143v -7.142857142857143z" transform="rotate(0,40,90)"/><path d="M 36.42857142857143 96.42857142857143v 7.142857142857143h 7.142857142857143v -7.142857142857143z" transform="rotate(0,40,100)"/><path d="M 36.42857142857143 106.42857142857143v 7.142857142857143h 7.142857142857143v -7.142857142857143z" transform="rotate(0,40,110)"/><path d="M 36.42857142857143 116.42857142857143v 7.142857142857143h 7.142857142857143v -7.142857142857143z" transform="rotate(0,40,120)"/><path d="M 36.42857142857143 146.42857142857142v 7.142857142857143h 7.142857142857143v -7.142857142857143z" transform="rotate(0,40,150)"/><path d="M 36.42857142857143 176.42857142857142v 7.142857142857143h 7.142857142857143v -7.142857142857143z" transform="rotate(0,40,180)"/><path d="M 36.42857142857143 186.42857142857142v 7.142857142857143h 7.142857142857143v -7.142857142857143z" transform="rotate(0,40,190)"/><path d="M 46.42857142857143 96.42857142857143v 7.142857142857143h 7.142857142857143v -7.142857142857143z" transform="rotate(0,50,100)"/><path d="M 46.42857142857143 126.42857142857143v 7.142857142857143h 7.142857142857143v -7.142857142857143z" transform="rotate(0,50,130)"/><path d="M 46.42857142857143 146.42857142857142v 7.142857142857143h 7.142857142857143v -7.142857142857143z" transform="rotate(0,50,150)"/><path d="M 46.42857142857143 176.42857142857142v 7.142857142857143h 7.142857142857143v -7.142857142857143z" transform="rotate(0,50,180)"/><path d="M 46.42857142857143 186.42857142857142v 7.142857142857143h 7.142857142857143v -7.142857142857143z" transform="rotate(0,50,190)"/><path d="M 46.42857142857143 206.42857142857142v 7.142857142857143h 7.142857142857143v -7.142857142857143z" transform="rotate(0,50,210)"/><path d="M 56.42857142857143 86.42857142857143v 7.142857142857143h 7.142857142857143v -7.142857142857143z" transform="rotate(0,60,90)"/><path d="M 56.42857142857143 106.42857142857143v 7.142857142857143h 7.142857142857143v -7.142857142857143z" transform="rotate(0,60,110)"/><path d="M 56.42857142857143 126.42857142857143v 7.142857142857143h 7.142857142857143v -7.142857142857143z" transform="rotate(0,60,130)"/><path d="M 56.42857142857143 146.42857142857142v 7.142857142857143h 7.142857142857143v -7.142857142857143z" transform="rotate(0,60,150)"/><path d="M 56.42857142857143 186.42857142857142v 7.142857142857143h 7.142857142857143v -7.142857142857143z" transform="rotate(0,60,190)"/><path d="M 66.42857142857143 86.42857142857143v 7.142857142857143h 7.142857142857143v -7.142857142857143z" transform="rotate(0,70,90)"/><path d="M 66.42857142857143 106.42857142857143v 7.142857142857143h 7.142857142857143v -7.142857142857143z" transform="rotate(0,70,110)"/><path d="M 66.42857142857143 126.42857142857143v 7.142857142857143h 7.142857142857143v -7.142857142857143z" transform="rotate(0,70,130)"/><path d="M 66.42857142857143 146.42857142857142v 7.142857142857143h 7.142857142857143v -7.142857142857143z" transform="rotate(0,70,150)"/><path d="M 66.42857142857143 166.42857142857142v 7.142857142857143h 7.142857142857143v -7.142857142857143z" transform="rotate(0,70,170)"/><path d="M 66.42857142857143 186.42857142857142v 7.142857142857143h 7.142857142857143v -7.142857142857143z" transform="rotate(0,70,190)"/><path d="M 66.42857142857143 206.42857142857142v 7.142857142857143h 7.142857142857143v -7.142857142857143z" transform="rotate(0,70,210)"/><path d="M 76.42857142857143 86.42857142857143v 7.142857142857143h 7.142857142857143v -7.142857142857143z" transform="rotate(0,80,90)"/><path d="M 76.42857142857143 116.42857142857143v 7.142857142857143h 7.142857142857143v -7.142857142857143z" transform="rotate(0,80,120)"/><path d="M 76.42857142857143 136.42857142857142v 7.142857142857143h 7.142857142857143v -7.142857142857143z" transform="rotate(0,80,140)"/><path d="M 76.42857142857143 146.42857142857142v 7.142857142857143h 7.142857142857143v -7.142857142857143z" transform="rotate(0,80,150)"/><path d="M 76.42857142857143 166.42857142857142v 7.142857142857143h 7.142857142857143v -7.142857142857143z" transform="rotate(0,80,170)"/><path d="M 76.42857142857143 186.42857142857142v 7.142857142857143h 7.142857142857143v -7.142857142857143z" transform="rotate(0,80,190)"/><path d="M 76.42857142857143 196.42857142857142v 7.142857142857143h 7.142857142857143v -7.142857142857143z" transform="rotate(0,80,200)"/><path d="M 86.42857142857143 16.428571428571427v 7.142857142857143h 7.142857142857143v -7.142857142857143z" transform="rotate(0,90,20)"/><path d="M 86.42857142857143 26.428571428571427v 7.142857142857143h 7.142857142857143v -7.142857142857143z" transform="rotate(0,90,30)"/><path d="M 86.42857142857143 66.42857142857143v 7.142857142857143h 7.142857142857143v -7.142857142857143z" transform="rotate(0,90,70)"/><path d="M 86.42857142857143 96.42857142857143v 7.142857142857143h 7.142857142857143v -7.142857142857143z" transform="rotate(0,90,100)"/><path d="M 86.42857142857143 106.42857142857143v 7.142857142857143h 7.142857142857143v -7.142857142857143z" transform="rotate(0,90,110)"/><path d="M 86.42857142857143 126.42857142857143v 7.142857142857143h 7.142857142857143v -7.142857142857143z" transform="rotate(0,90,130)"/><path d="M 86.42857142857143 136.42857142857142v 7.142857142857143h 7.142857142857143v -7.142857142857143z" transform="rotate(0,90,140)"/><path d="M 86.42857142857143 146.42857142857142v 7.142857142857143h 7.142857142857143v -7.142857142857143z" transform="rotate(0,90,150)"/><path d="M 86.42857142857143 166.42857142857142v 7.142857142857143h 7.142857142857143v -7.142857142857143z" transform="rotate(0,90,170)"/><path d="M 86.42857142857143 176.42857142857142v 7.142857142857143h 7.142857142857143v -7.142857142857143z" transform="rotate(0,90,180)"/><path d="M 86.42857142857143 196.42857142857142v 7.142857142857143h 7.142857142857143v -7.142857142857143z" transform="rotate(0,90,200)"/><path d="M 86.42857142857143 226.42857142857142v 7.142857142857143h 7.142857142857143v -7.142857142857143z" transform="rotate(0,90,230)"/><path d="M 86.42857142857143 236.42857142857142v 7.142857142857143h 7.142857142857143v -7.142857142857143z" transform="rotate(0,90,240)"/><path d="M 86.42857142857143 256.42857142857144v 7.142857142857143h 7.142857142857143v -7.142857142857143z" transform="rotate(0,90,260)"/><path d="M 96.42857142857143 6.428571428571429v 7.142857142857143h 7.142857142857143v -7.142857142857143z" transform="rotate(0,100,10)"/><path d="M 96.42857142857143 26.428571428571427v 7.142857142857143h 7.142857142857143v -7.142857142857143z" transform="rotate(0,100,30)"/><path d="M 96.42857142857143 46.42857142857143v 7.142857142857143h 7.142857142857143v -7.142857142857143z" transform="rotate(0,100,50)"/><path d="M 96.42857142857143 56.42857142857143v 7.142857142857143h 7.142857142857143v -7.142857142857143z" transform="rotate(0,100,60)"/><path d="M 96.42857142857143 76.42857142857143v 7.142857142857143h 7.142857142857143v -7.142857142857143z" transform="rotate(0,100,80)"/><path d="M 96.42857142857143 86.42857142857143v 7.142857142857143h 7.142857142857143v -7.142857142857143z" transform="rotate(0,100,90)"/><path d="M 96.42857142857143 106.42857142857143v 7.142857142857143h 7.142857142857143v -7.142857142857143z" transform="rotate(0,100,110)"/><path d="M 96.42857142857143 126.42857142857143v 7.142857142857143h 7.142857142857143v -7.142857142857143z" transform="rotate(0,100,130)"/><path d="M 96.42857142857143 156.42857142857142v 7.142857142857143h 7.142857142857143v -7.142857142857143z" transform="rotate(0,100,160)"/><path d="M 96.42857142857143 166.42857142857142v 7.142857142857143h 7.142857142857143v -7.142857142857143z" transform="rotate(0,100,170)"/><path d="M 96.42857142857143 176.42857142857142v 7.142857142857143h 7.142857142857143v -7.142857142857143z" transform="rotate(0,100,180)"/><path d="M 96.42857142857143 186.42857142857142v 7.142857142857143h 7.142857142857143v -7.142857142857143z" transform="rotate(0,100,190)"/><path d="M 96.42857142857143 206.42857142857142v 7.142857142857143h 7.142857142857143v -7.142857142857143z" transform="rotate(0,100,210)"/><path d="M 96.42857142857143 216.42857142857142v 7.142857142857143h 7.142857142857143v -7.142857142857143z" transform="rotate(0,100,220)"/><path d="M 96.42857142857143 236.42857142857142v 7.142857142857143h 7.142857142857143v -7.142857142857143z" transform="rotate(0,100,240)"/><path d="M 96.42857142857143 276.42857142857144v 7.142857142857143h 7.142857142857143v -7.142857142857143z" transform="rotate(0,100,280)"/><path d="M 96.42857142857143 286.42857142857144v 7.142857142857143h 7.142857142857143v -7.142857142857143z" transform="rotate(0,100,290)"/><path d="M 106.42857142857143 16.428571428571427v 7.142857142857143h 7.142857142857143v -7.142857142857143z" transform="rotate(0,110,20)"/><path d="M 106.42857142857143 26.428571428571427v 7.142857142857143h 7.142857142857143v -7.142857142857143z" transform="rotate(0,110,30)"/><path d="M 106.42857142857143 66.42857142857143v 7.142857142857143h 7.142857142857143v -7.142857142857143z" transform="rotate(0,110,70)"/><path d="M 106.42857142857143 106.42857142857143v 7.142857142857143h 7.142857142857143v -7.142857142857143z" transform="rotate(0,110,110)"/><path d="M 106.42857142857143 126.42857142857143v 7.142857142857143h 7.142857142857143v -7.142857142857143z" transform="rotate(0,110,130)"/><path d="M 106.42857142857143 146.42857142857142v 7.142857142857143h 7.142857142857143v -7.142857142857143z" transform="rotate(0,110,150)"/><path d="M 106.42857142857143 176.42857142857142v 7.142857142857143h 7.142857142857143v -7.142857142857143z" transform="rotate(0,110,180)"/><path d="M 106.42857142857143 196.42857142857142v 7.142857142857143h 7.142857142857143v -7.142857142857143z" transform="rotate(0,110,200)"/><path d="M 106.42857142857143 206.42857142857142v 7.142857142857143h 7.142857142857143v -7.142857142857143z" transform="rotate(0,110,210)"/><path d="M 106.42857142857143 216.42857142857142v 7.142857142857143h 7.142857142857143v -7.142857142857143z" transform="rotate(0,110,220)"/><path d="M 106.42857142857143 236.42857142857142v 7.142857142857143h 7.142857142857143v -7.142857142857143z" transform="rotate(0,110,240)"/><path d="M 106.42857142857143 246.42857142857142v 7.142857142857143h 7.142857142857143v -7.142857142857143z" transform="rotate(0,110,250)"/><path d="M 106.42857142857143 286.42857142857144v 7.142857142857143h 7.142857142857143v -7.142857142857143z" transform="rotate(0,110,290)"/><path d="M 116.42857142857143 6.428571428571429v 7.142857142857143h 7.142857142857143v -7.142857142857143z" transform="rotate(0,120,10)"/><path d="M 116.42857142857143 26.428571428571427v 7.142857142857143h 7.142857142857143v -7.142857142857143z" transform="rotate(0,120,30)"/><path d="M 116.42857142857143 56.42857142857143v 7.142857142857143h 7.142857142857143v -7.142857142857143z" transform="rotate(0,120,60)"/><path d="M 116.42857142857143 106.42857142857143v 7.142857142857143h 7.142857142857143v -7.142857142857143z" transform="rotate(0,120,110)"/><path d="M 116.42857142857143 116.42857142857143v 7.142857142857143h 7.142857142857143v -7.142857142857143z" transform="rotate(0,120,120)"/><path d="M 116.42857142857143 146.42857142857142v 7.142857142857143h 7.142857142857143v -7.142857142857143z" transform="rotate(0,120,150)"/><path d="M 116.42857142857143 186.42857142857142v 7.142857142857143h 7.142857142857143v -7.142857142857143z" transform="rotate(0,120,190)"/><path d="M 116.42857142857143 196.42857142857142v 7.142857142857143h 7.142857142857143v -7.142857142857143z" transform="rotate(0,120,200)"/><path d="M 116.42857142857143 226.42857142857142v 7.142857142857143h 7.142857142857143v -7.142857142857143z" transform="rotate(0,120,230)"/><path d="M 116.42857142857143 236.42857142857142v 7.142857142857143h 7.142857142857143v -7.142857142857143z" transform="rotate(0,120,240)"/><path d="M 116.42857142857143 256.42857142857144v 7.142857142857143h 7.142857142857143v -7.142857142857143z" transform="rotate(0,120,260)"/><path d="M 126.42857142857143 6.428571428571429v 7.142857142857143h 7.142857142857143v -7.142857142857143z" transform="rotate(0,130,10)"/><path d="M 126.42857142857143 36.42857142857143v 7.142857142857143h 7.142857142857143v -7.142857142857143z" transform="rotate(0,130,40)"/><path d="M 126.42857142857143 46.42857142857143v 7.142857142857143h 7.142857142857143v -7.142857142857143z" transform="rotate(0,130,50)"/><path d="M 126.42857142857143 66.42857142857143v 7.142857142857143h 7.142857142857143v -7.142857142857143z" transform="rotate(0,130,70)"/><path d="M 126.42857142857143 96.42857142857143v 7.142857142857143h 7.142857142857143v -7.142857142857143z" transform="rotate(0,130,100)"/><path d="M 126.42857142857143 116.42857142857143v 7.142857142857143h 7.142857142857143v -7.142857142857143z" transform="rotate(0,130,120)"/><path d="M 126.42857142857143 146.42857142857142v 7.142857142857143h 7.142857142857143v -7.142857142857143z" transform="rotate(0,130,150)"/><path d="M 126.42857142857143 156.42857142857142v 7.142857142857143h 7.142857142857143v -7.142857142857143z" transform="rotate(0,130,160)"/><path d="M 126.42857142857143 166.42857142857142v 7.142857142857143h 7.142857142857143v -7.142857142857143z" transform="rotate(0,130,170)"/><path d="M 126.42857142857143 196.42857142857142v 7.142857142857143h 7.142857142857143v -7.142857142857143z" transform="rotate(0,130,200)"/><path d="M 126.42857142857143 216.42857142857142v 7.142857142857143h 7.142857142857143v -7.142857142857143z" transform="rotate(0,130,220)"/><path d="M 126.42857142857143 226.42857142857142v 7.142857142857143h 7.142857142857143v -7.142857142857143z" transform="rotate(0,130,230)"/><path d="M 126.42857142857143 256.42857142857144v 7.142857142857143h 7.142857142857143v -7.142857142857143z" transform="rotate(0,130,260)"/><path d="M 126.42857142857143 276.42857142857144v 7.142857142857143h 7.142857142857143v -7.142857142857143z" transform="rotate(0,130,280)"/><path d="M 136.42857142857142 26.428571428571427v 7.142857142857143h 7.142857142857143v -7.142857142857143z" transform="rotate(0,140,30)"/><path d="M 136.42857142857142 46.42857142857143v 7.142857142857143h 7.142857142857143v -7.142857142857143z" transform="rotate(0,140,50)"/><path d="M 136.42857142857142 76.42857142857143v 7.142857142857143h 7.142857142857143v -7.142857142857143z" transform="rotate(0,140,80)"/><path d="M 136.42857142857142 116.42857142857143v 7.142857142857143h 7.142857142857143v -7.142857142857143z" transform="rotate(0,140,120)"/><path d="M 136.42857142857142 146.42857142857142v 7.142857142857143h 7.142857142857143v -7.142857142857143z" transform="rotate(0,140,150)"/><path d="M 136.42857142857142 166.42857142857142v 7.142857142857143h 7.142857142857143v -7.142857142857143z" transform="rotate(0,140,170)"/><path d="M 136.42857142857142 196.42857142857142v 7.142857142857143h 7.142857142857143v -7.142857142857143z" transform="rotate(0,140,200)"/><path d="M 136.42857142857142 206.42857142857142v 7.142857142857143h 7.142857142857143v -7.142857142857143z" transform="rotate(0,140,210)"/><path d="M 136.42857142857142 226.42857142857142v 7.142857142857143h 7.142857142857143v -7.142857142857143z" transform="rotate(0,140,230)"/><path d="M 136.42857142857142 256.42857142857144v 7.142857142857143h 7.142857142857143v -7.142857142857143z" transform="rotate(0,140,260)"/><path d="M 136.42857142857142 286.42857142857144v 7.142857142857143h 7.142857142857143v -7.142857142857143z" transform="rotate(0,140,290)"/><path d="M 146.42857142857142 56.42857142857143v 7.142857142857143h 7.142857142857143v -7.142857142857143z" transform="rotate(0,150,60)"/><path d="M 146.42857142857142 66.42857142857143v 7.142857142857143h 7.142857142857143v -7.142857142857143z" transform="rotate(0,150,70)"/><path d="M 146.42857142857142 96.42857142857143v 7.142857142857143h 7.142857142857143v -7.142857142857143z" transform="rotate(0,150,100)"/><path d="M 146.42857142857142 116.42857142857143v 7.142857142857143h 7.142857142857143v -7.142857142857143z" transform="rotate(0,150,120)"/><path d="M 146.42857142857142 126.42857142857143v 7.142857142857143h 7.142857142857143v -7.142857142857143z" transform="rotate(0,150,130)"/><path d="M 146.42857142857142 156.42857142857142v 7.142857142857143h 7.142857142857143v -7.142857142857143z" transform="rotate(0,150,160)"/><path d="M 146.42857142857142 166.42857142857142v 7.142857142857143h 7.142857142857143v -7.142857142857143z" transform="rotate(0,150,170)"/><path d="M 146.42857142857142 176.42857142857142v 7.142857142857143h 7.142857142857143v -7.142857142857143z" transform="rotate(0,150,180)"/><path d="M 146.42857142857142 196.42857142857142v 7.142857142857143h 7.142857142857143v -7.142857142857143z" transform="rotate(0,150,200)"/><path d="M 146.42857142857142 216.42857142857142v 7.142857142857143h 7.142857142857143v -7.142857142857143z" transform="rotate(0,150,220)"/><path d="M 146.42857142857142 226.42857142857142v 7.142857142857143h 7.142857142857143v -7.142857142857143z" transform="rotate(0,150,230)"/><path d="M 146.42857142857142 256.42857142857144v 7.142857142857143h 7.142857142857143v -7.142857142857143z" transform="rotate(0,150,260)"/><path d="M 146.42857142857142 266.42857142857144v 7.142857142857143h 7.142857142857143v -7.142857142857143z" transform="rotate(0,150,270)"/><path d="M 146.42857142857142 286.42857142857144v 7.142857142857143h 7.142857142857143v -7.142857142857143z" transform="rotate(0,150,290)"/><path d="M 156.42857142857142 6.428571428571429v 7.142857142857143h 7.142857142857143v -7.142857142857143z" transform="rotate(0,160,10)"/><path d="M 156.42857142857142 36.42857142857143v 7.142857142857143h 7.142857142857143v -7.142857142857143z" transform="rotate(0,160,40)"/><path d="M 156.42857142857142 46.42857142857143v 7.142857142857143h 7.142857142857143v -7.142857142857143z" transform="rotate(0,160,50)"/><path d="M 156.42857142857142 56.42857142857143v 7.142857142857143h 7.142857142857143v -7.142857142857143z" transform="rotate(0,160,60)"/><path d="M 156.42857142857142 76.42857142857143v 7.142857142857143h 7.142857142857143v -7.142857142857143z" transform="rotate(0,160,80)"/><path d="M 156.42857142857142 86.42857142857143v 7.142857142857143h 7.142857142857143v -7.142857142857143z" transform="rotate(0,160,90)"/><path d="M 156.42857142857142 116.42857142857143v 7.142857142857143h 7.142857142857143v -7.142857142857143z" transform="rotate(0,160,120)"/><path d="M 156.42857142857142 156.42857142857142v 7.142857142857143h 7.142857142857143v -7.142857142857143z" transform="rotate(0,160,160)"/><path d="M 156.42857142857142 226.42857142857142v 7.142857142857143h 7.142857142857143v -7.142857142857143z" transform="rotate(0,160,230)"/><path d="M 156.42857142857142 256.42857142857144v 7.142857142857143h 7.142857142857143v -7.142857142857143z" transform="rotate(0,160,260)"/><path d="M 156.42857142857142 286.42857142857144v 7.142857142857143h 7.142857142857143v -7.142857142857143z" transform="rotate(0,160,290)"/><path d="M 166.42857142857142 6.428571428571429v 7.142857142857143h 7.142857142857143v -7.142857142857143z" transform="rotate(0,170,10)"/><path d="M 166.42857142857142 56.42857142857143v 7.142857142857143h 7.142857142857143v -7.142857142857143z" transform="rotate(0,170,60)"/><path d="M 166.42857142857142 66.42857142857143v 7.142857142857143h 7.142857142857143v -7.142857142857143z" transform="rotate(0,170,70)"/><path d="M 166.42857142857142 86.42857142857143v 7.142857142857143h 7.142857142857143v -7.142857142857143z" transform="rotate(0,170,90)"/><path d="M 166.42857142857142 96.42857142857143v 7.142857142857143h 7.142857142857143v -7.142857142857143z" transform="rotate(0,170,100)"/><path d="M 166.42857142857142 116.42857142857143v 7.142857142857143h 7.142857142857143v -7.142857142857143z" transform="rotate(0,170,120)"/><path d="M 166.42857142857142 126.42857142857143v 7.142857142857143h 7.142857142857143v -7.142857142857143z" transform="rotate(0,170,130)"/><path d="M 166.42857142857142 146.42857142857142v 7.142857142857143h 7.142857142857143v -7.142857142857143z" transform="rotate(0,170,150)"/><path d="M 166.42857142857142 166.42857142857142v 7.142857142857143h 7.142857142857143v -7.142857142857143z" transform="rotate(0,170,170)"/><path d="M 166.42857142857142 176.42857142857142v 7.142857142857143h 7.142857142857143v -7.142857142857143z" transform="rotate(0,170,180)"/><path d="M 166.42857142857142 186.42857142857142v 7.142857142857143h 7.142857142857143v -7.142857142857143z" transform="rotate(0,170,190)"/><path d="M 166.42857142857142 196.42857142857142v 7.142857142857143h 7.142857142857143v -7.142857142857143z" transform="rotate(0,170,200)"/><path d="M 166.42857142857142 226.42857142857142v 7.142857142857143h 7.142857142857143v -7.142857142857143z" transform="rotate(0,170,230)"/><path d="M 166.42857142857142 236.42857142857142v 7.142857142857143h 7.142857142857143v -7.142857142857143z" transform="rotate(0,170,240)"/><path d="M 166.42857142857142 246.42857142857142v 7.142857142857143h 7.142857142857143v -7.142857142857143z" transform="rotate(0,170,250)"/><path d="M 176.42857142857142 76.42857142857143v 7.142857142857143h 7.142857142857143v -7.142857142857143z" transform="rotate(0,180,80)"/><path d="M 176.42857142857142 96.42857142857143v 7.142857142857143h 7.142857142857143v -7.142857142857143z" transform="rotate(0,180,100)"/><path d="M 176.42857142857142 166.42857142857142v 7.142857142857143h 7.142857142857143v -7.142857142857143z" transform="rotate(0,180,170)"/><path d="M 176.42857142857142 206.42857142857142v 7.142857142857143h 7.142857142857143v -7.142857142857143z" transform="rotate(0,180,210)"/><path d="M 176.42857142857142 226.42857142857142v 7.142857142857143h 7.142857142857143v -7.142857142857143z" transform="rotate(0,180,230)"/><path d="M 176.42857142857142 236.42857142857142v 7.142857142857143h 7.142857142857143v -7.142857142857143z" transform="rotate(0,180,240)"/><path d="M 176.42857142857142 256.42857142857144v 7.142857142857143h 7.142857142857143v -7.142857142857143z" transform="rotate(0,180,260)"/><path d="M 176.42857142857142 266.42857142857144v 7.142857142857143h 7.142857142857143v -7.142857142857143z" transform="rotate(0,180,270)"/><path d="M 176.42857142857142 286.42857142857144v 7.142857142857143h 7.142857142857143v -7.142857142857143z" transform="rotate(0,180,290)"/><path d="M 186.42857142857142 6.428571428571429v 7.142857142857143h 7.142857142857143v -7.142857142857143z" transform="rotate(0,190,10)"/><path d="M 186.42857142857142 16.428571428571427v 7.142857142857143h 7.142857142857143v -7.142857142857143z" transform="rotate(0,190,20)"/><path d="M 186.42857142857142 36.42857142857143v 7.142857142857143h 7.142857142857143v -7.142857142857143z" transform="rotate(0,190,40)"/><path d="M 186.42857142857142 56.42857142857143v 7.142857142857143h 7.142857142857143v -7.142857142857143z" transform="rotate(0,190,60)"/><path d="M 186.42857142857142 66.42857142857143v 7.142857142857143h 7.142857142857143v -7.142857142857143z" transform="rotate(0,190,70)"/><path d="M 186.42857142857142 86.42857142857143v 7.142857142857143h 7.142857142857143v -7.142857142857143z" transform="rotate(0,190,90)"/><path d="M 186.42857142857142 146.42857142857142v 7.142857142857143h 7.142857142857143v -7.142857142857143z" transform="rotate(0,190,150)"/><path d="M 186.42857142857142 166.42857142857142v 7.142857142857143h 7.142857142857143v -7.142857142857143z" transform="rotate(0,190,170)"/><path d="M 186.42857142857142 176.42857142857142v 7.142857142857143h 7.142857142857143v -7.142857142857143z" transform="rotate(0,190,180)"/><path d="M 186.42857142857142 196.42857142857142v 7.142857142857143h 7.142857142857143v -7.142857142857143z" transform="rotate(0,190,200)"/><path d="M 186.42857142857142 286.42857142857144v 7.142857142857143h 7.142857142857143v -7.142857142857143z" transform="rotate(0,190,290)"/><path d="M 196.42857142857142 46.42857142857143v 7.142857142857143h 7.142857142857143v -7.142857142857143z" transform="rotate(0,200,50)"/><path d="M 196.42857142857142 56.42857142857143v 7.142857142857143h 7.142857142857143v -7.142857142857143z" transform="rotate(0,200,60)"/><path d="M 196.42857142857142 86.42857142857143v 7.142857142857143h 7.142857142857143v -7.142857142857143z" transform="rotate(0,200,90)"/><path d="M 196.42857142857142 106.42857142857143v 7.142857142857143h 7.142857142857143v -7.142857142857143z" transform="rotate(0,200,110)"/><path d="M 196.42857142857142 116.42857142857143v 7.142857142857143h 7.142857142857143v -7.142857142857143z" transform="rotate(0,200,120)"/><path d="M 196.42857142857142 126.42857142857143v 7.142857142857143h 7.142857142857143v -7.142857142857143z" transform="rotate(0,200,130)"/><path d="M 196.42857142857142 136.42857142857142v 7.142857142857143h 7.142857142857143v -7.142857142857143z" transform="rotate(0,200,140)"/><path d="M 196.42857142857142 146.42857142857142v 7.142857142857143h 7.142857142857143v -7.142857142857143z" transform="rotate(0,200,150)"/><path d="M 196.42857142857142 156.42857142857142v 7.142857142857143h 7.142857142857143v -7.142857142857143z" transform="rotate(0,200,160)"/><path d="M 196.42857142857142 166.42857142857142v 7.142857142857143h 7.142857142857143v -7.142857142857143z" transform="rotate(0,200,170)"/><path d="M 196.42857142857142 186.42857142857142v 7.142857142857143h 7.142857142857143v -7.142857142857143z" transform="rotate(0,200,190)"/><path d="M 196.42857142857142 216.42857142857142v 7.142857142857143h 7.142857142857143v -7.142857142857143z" transform="rotate(0,200,220)"/><path d="M 196.42857142857142 226.42857142857142v 7.142857142857143h 7.142857142857143v -7.142857142857143z" transform="rotate(0,200,230)"/><path d="M 196.42857142857142 236.42857142857142v 7.142857142857143h 7.142857142857143v -7.142857142857143z" transform="rotate(0,200,240)"/><path d="M 196.42857142857142 246.42857142857142v 7.142857142857143h 7.142857142857143v -7.142857142857143z" transform="rotate(0,200,250)"/><path d="M 196.42857142857142 256.42857142857144v 7.142857142857143h 7.142857142857143v -7.142857142857143z" transform="rotate(0,200,260)"/><path d="M 196.42857142857142 276.42857142857144v 7.142857142857143h 7.142857142857143v -7.142857142857143z" transform="rotate(0,200,280)"/><path d="M 206.42857142857142 6.428571428571429v 7.142857142857143h 7.142857142857143v -7.142857142857143z" transform="rotate(0,210,10)"/><path d="M 206.42857142857142 16.428571428571427v 7.142857142857143h 7.142857142857143v -7.142857142857143z" transform="rotate(0,210,20)"/><path d="M 206.42857142857142 46.42857142857143v 7.142857142857143h 7.142857142857143v -7.142857142857143z" transform="rotate(0,210,50)"/><path d="M 206.42857142857142 66.42857142857143v 7.142857142857143h 7.142857142857143v -7.142857142857143z" transform="rotate(0,210,70)"/><path d="M 206.42857142857142 76.42857142857143v 7.142857142857143h 7.142857142857143v -7.142857142857143z" transform="rotate(0,210,80)"/><path d="M 206.42857142857142 86.42857142857143v 7.142857142857143h 7.142857142857143v -7.142857142857143z" transform="rotate(0,210,90)"/><path d="M 206.42857142857142 126.42857142857143v 7.142857142857143h 7.142857142857143v -7.142857142857143z" transform="rotate(0,210,130)"/><path d="M 206.42857142857142 136.42857142857142v 7.142857142857143h 7.142857142857143v -7.142857142857143z" transform="rotate(0,210,140)"/><path d="M 206.42857142857142 146.42857142857142v 7.142857142857143h 7.142857142857143v -7.142857142857143z" transform="rotate(0,210,150)"/><path d="M 206.42857142857142 186.42857142857142v 7.142857142857143h 7.142857142857143v -7.142857142857143z" transform="rotate(0,210,190)"/><path d="M 206.42857142857142 206.42857142857142v 7.142857142857143h 7.142857142857143v -7.142857142857143z" transform="rotate(0,210,210)"/><path d="M 206.42857142857142 216.42857142857142v 7.142857142857143h 7.142857142857143v -7.142857142857143z" transform="rotate(0,210,220)"/><path d="M 206.42857142857142 226.42857142857142v 7.142857142857143h 7.142857142857143v -7.142857142857143z" transform="rotate(0,210,230)"/><path d="M 206.42857142857142 236.42857142857142v 7.142857142857143h 7.142857142857143v -7.142857142857143z" transform="rotate(0,210,240)"/><path d="M 206.42857142857142 246.42857142857142v 7.142857142857143h 7.142857142857143v -7.142857142857143z" transform="rotate(0,210,250)"/><path d="M 206.42857142857142 256.42857142857144v 7.142857142857143h 7.142857142857143v -7.142857142857143z" transform="rotate(0,210,260)"/><path d="M 216.42857142857142 86.42857142857143v 7.142857142857143h 7.142857142857143v -7.142857142857143z" transform="rotate(0,220,90)"/><path d="M 216.42857142857142 96.42857142857143v 7.142857142857143h 7.142857142857143v -7.142857142857143z" transform="rotate(0,220,100)"/><path d="M 216.42857142857142 106.42857142857143v 7.142857142857143h 7.142857142857143v -7.142857142857143z" transform="rotate(0,220,110)"/><path d="M 216.42857142857142 126.42857142857143v 7.142857142857143h 7.142857142857143v -7.142857142857143z" transform="rotate(0,220,130)"/><path d="M 216.42857142857142 146.42857142857142v 7.142857142857143h 7.142857142857143v -7.142857142857143z" transform="rotate(0,220,150)"/><path d="M 216.42857142857142 156.42857142857142v 7.142857142857143h 7.142857142857143v -7.142857142857143z" transform="rotate(0,220,160)"/><path d="M 216.42857142857142 166.42857142857142v 7.142857142857143h 7.142857142857143v -7.142857142857143z" transform="rotate(0,220,170)"/><path d="M 216.42857142857142 176.42857142857142v 7.142857142857143h 7.142857142857143v -7.142857142857143z" transform="rotate(0,220,180)"/><path d="M 216.42857142857142 196.42857142857142v 7.142857142857143h 7.142857142857143v -7.142857142857143z" transform="rotate(0,220,200)"/><path d="M 216.42857142857142 206.42857142857142v 7.142857142857143h 7.142857142857143v -7.142857142857143z" transform="rotate(0,220,210)"/><path d="M 216.42857142857142 246.42857142857142v 7.142857142857143h 7.142857142857143v -7.142857142857143z" transform="rotate(0,220,250)"/><path d="M 216.42857142857142 256.42857142857144v 7.142857142857143h 7.142857142857143v -7.142857142857143z" transform="rotate(0,220,260)"/><path d="M 216.42857142857142 286.42857142857144v 7.142857142857143h 7.142857142857143v -7.142857142857143z" transform="rotate(0,220,290)"/><path d="M 226.42857142857142 126.42857142857143v 7.142857142857143h 7.142857142857143v -7.142857142857143z" transform="rotate(0,230,130)"/><path d="M 226.42857142857142 156.42857142857142v 7.142857142857143h 7.142857142857143v -7.142857142857143z" transform="rotate(0,230,160)"/><path d="M 226.42857142857142 206.42857142857142v 7.142857142857143h 7.142857142857143v -7.142857142857143z" transform="rotate(0,230,210)"/><path d="M 226.42857142857142 226.42857142857142v 7.142857142857143h 7.142857142857143v -7.142857142857143z" transform="rotate(0,230,230)"/><path d="M 226.42857142857142 246.42857142857142v 7.142857142857143h 7.142857142857143v -7.142857142857143z" transform="rotate(0,230,250)"/><path d="M 226.42857142857142 256.42857142857144v 7.142857142857143h 7.142857142857143v -7.142857142857143z" transform="rotate(0,230,260)"/><path d="M 226.42857142857142 266.42857142857144v 7.142857142857143h 7.142857142857143v -7.142857142857143z" transform="rotate(0,230,270)"/><path d="M 226.42857142857142 276.42857142857144v 7.142857142857143h 7.142857142857143v -7.142857142857143z" transform="rotate(0,230,280)"/><path d="M 226.42857142857142 286.42857142857144v 7.142857142857143h 7.142857142857143v -7.142857142857143z" transform="rotate(0,230,290)"/><path d="M 236.42857142857142 116.42857142857143v 7.142857142857143h 7.142857142857143v -7.142857142857143z" transform="rotate(0,240,120)"/><path d="M 236.42857142857142 126.42857142857143v 7.142857142857143h 7.142857142857143v -7.142857142857143z" transform="rotate(0,240,130)"/><path d="M 236.42857142857142 176.42857142857142v 7.142857142857143h 7.142857142857143v -7.142857142857143z" transform="rotate(0,240,180)"/><path d="M 236.42857142857142 196.42857142857142v 7.142857142857143h 7.142857142857143v -7.142857142857143z" transform="rotate(0,240,200)"/><path d="M 236.42857142857142 206.42857142857142v 7.142857142857143h 7.142857142857143v -7.142857142857143z" transform="rotate(0,240,210)"/><path d="M 236.42857142857142 246.42857142857142v 7.142857142857143h 7.142857142857143v -7.142857142857143z" transform="rotate(0,240,250)"/><path d="M 236.42857142857142 256.42857142857144v 7.142857142857143h 7.142857142857143v -7.142857142857143z" transform="rotate(0,240,260)"/><path d="M 236.42857142857142 286.42857142857144v 7.142857142857143h 7.142857142857143v -7.142857142857143z" transform="rotate(0,240,290)"/><path d="M 246.42857142857142 96.42857142857143v 7.142857142857143h 7.142857142857143v -7.142857142857143z" transform="rotate(0,250,100)"/><path d="M 246.42857142857142 106.42857142857143v 7.142857142857143h 7.142857142857143v -7.142857142857143z" transform="rotate(0,250,110)"/><path d="M 246.42857142857142 156.42857142857142v 7.142857142857143h 7.142857142857143v -7.142857142857143z" transform="rotate(0,250,160)"/><path d="M 246.42857142857142 176.42857142857142v 7.142857142857143h 7.142857142857143v -7.142857142857143z" transform="rotate(0,250,180)"/><path d="M 246.42857142857142 196.42857142857142v 7.142857142857143h 7.142857142857143v -7.142857142857143z" transform="rotate(0,250,200)"/><path d="M 246.42857142857142 206.42857142857142v 7.142857142857143h 7.142857142857143v -7.142857142857143z" transform="rotate(0,250,210)"/><path d="M 246.42857142857142 216.42857142857142v 7.142857142857143h 7.142857142857143v -7.142857142857143z" transform="rotate(0,250,220)"/><path d="M 246.42857142857142 226.42857142857142v 7.142857142857143h 7.142857142857143v -7.142857142857143z" transform="rotate(0,250,230)"/><path d="M 246.42857142857142 236.42857142857142v 7.142857142857143h 7.142857142857143v -7.142857142857143z" transform="rotate(0,250,240)"/><path d="M 246.42857142857142 246.42857142857142v 7.142857142857143h 7.142857142857143v -7.142857142857143z" transform="rotate(0,250,250)"/><path d="M 246.42857142857142 276.42857142857144v 7.142857142857143h 7.142857142857143v -7.142857142857143z" transform="rotate(0,250,280)"/><path d="M 246.42857142857142 286.42857142857144v 7.142857142857143h 7.142857142857143v -7.142857142857143z" transform="rotate(0,250,290)"/><path d="M 256.42857142857144 96.42857142857143v 7.142857142857143h 7.142857142857143v -7.142857142857143z" transform="rotate(0,260,100)"/><path d="M 256.42857142857144 106.42857142857143v 7.142857142857143h 7.142857142857143v -7.142857142857143z" transform="rotate(0,260,110)"/><path d="M 256.42857142857144 116.42857142857143v 7.142857142857143h 7.142857142857143v -7.142857142857143z" transform="rotate(0,260,120)"/><path d="M 256.42857142857144 136.42857142857142v 7.142857142857143h 7.142857142857143v -7.142857142857143z" transform="rotate(0,260,140)"/><path d="M 256.42857142857144 176.42857142857142v 7.142857142857143h 7.142857142857143v -7.142857142857143z" transform="rotate(0,260,180)"/><path d="M 256.42857142857144 196.42857142857142v 7.142857142857143h 7.142857142857143v -7.142857142857143z" transform="rotate(0,260,200)"/><path d="M 256.42857142857144 206.42857142857142v 7.142857142857143h 7.142857142857143v -7.142857142857143z" transform="rotate(0,260,210)"/><path d="M 256.42857142857144 236.42857142857142v 7.142857142857143h 7.142857142857143v -7.142857142857143z" transform="rotate(0,260,240)"/><path d="M 256.42857142857144 246.42857142857142v 7.142857142857143h 7.142857142857143v -7.142857142857143z" transform="rotate(0,260,250)"/><path d="M 256.42857142857144 256.42857142857144v 7.142857142857143h 7.142857142857143v -7.142857142857143z" transform="rotate(0,260,260)"/><path d="M 256.42857142857144 266.42857142857144v 7.142857142857143h 7.142857142857143v -7.142857142857143z" transform="rotate(0,260,270)"/><path d="M 256.42857142857144 276.42857142857144v 7.142857142857143h 7.142857142857143v -7.142857142857143z" transform="rotate(0,260,280)"/><path d="M 266.42857142857144 86.42857142857143v 7.142857142857143h 7.142857142857143v -7.142857142857143z" transform="rotate(0,270,90)"/><path d="M 266.42857142857144 96.42857142857143v 7.142857142857143h 7.142857142857143v -7.142857142857143z" transform="rotate(0,270,100)"/><path d="M 266.42857142857144 146.42857142857142v 7.142857142857143h 7.142857142857143v -7.142857142857143z" transform="rotate(0,270,150)"/><path d="M 266.42857142857144 156.42857142857142v 7.142857142857143h 7.142857142857143v -7.142857142857143z" transform="rotate(0,270,160)"/><path d="M 266.42857142857144 176.42857142857142v 7.142857142857143h 7.142857142857143v -7.142857142857143z" transform="rotate(0,270,180)"/><path d="M 266.42857142857144 216.42857142857142v 7.142857142857143h 7.142857142857143v -7.142857142857143z" transform="rotate(0,270,220)"/><path d="M 266.42857142857144 246.42857142857142v 7.142857142857143h 7.142857142857143v -7.142857142857143z" transform="rotate(0,270,250)"/><path d="M 266.42857142857144 266.42857142857144v 7.142857142857143h 7.142857142857143v -7.142857142857143z" transform="rotate(0,270,270)"/><path d="M 266.42857142857144 276.42857142857144v 7.142857142857143h 7.142857142857143v -7.142857142857143z" transform="rotate(0,270,280)"/><path d="M 266.42857142857144 286.42857142857144v 7.142857142857143h 7.142857142857143v -7.142857142857143z" transform="rotate(0,270,290)"/><path d="M 276.42857142857144 86.42857142857143v 7.142857142857143h 7.142857142857143v -7.142857142857143z" transform="rotate(0,280,90)"/><path d="M 276.42857142857144 96.42857142857143v 7.142857142857143h 7.142857142857143v -7.142857142857143z" transform="rotate(0,280,100)"/><path d="M 276.42857142857144 106.42857142857143v 7.142857142857143h 7.142857142857143v -7.142857142857143z" transform="rotate(0,280,110)"/><path d="M 276.42857142857144 116.42857142857143v 7.142857142857143h 7.142857142857143v -7.142857142857143z" transform="rotate(0,280,120)"/><path d="M 276.42857142857144 126.42857142857143v 7.142857142857143h 7.142857142857143v -7.142857142857143z" transform="rotate(0,280,130)"/><path d="M 276.42857142857144 146.42857142857142v 7.142857142857143h 7.142857142857143v -7.142857142857143z" transform="rotate(0,280,150)"/><path d="M 276.42857142857144 186.42857142857142v 7.142857142857143h 7.142857142857143v -7.142857142857143z" transform="rotate(0,280,190)"/><path d="M 276.42857142857144 196.42857142857142v 7.142857142857143h 7.142857142857143v -7.142857142857143z" transform="rotate(0,280,200)"/><path d="M 276.42857142857144 206.42857142857142v 7.142857142857143h 7.142857142857143v -7.142857142857143z" transform="rotate(0,280,210)"/><path d="M 276.42857142857144 226.42857142857142v 7.142857142857143h 7.142857142857143v -7.142857142857143z" transform="rotate(0,280,230)"/><path d="M 286.42857142857144 96.42857142857143v 7.142857142857143h 7.142857142857143v -7.142857142857143z" transform="rotate(0,290,100)"/><path d="M 286.42857142857144 116.42857142857143v 7.142857142857143h 7.142857142857143v -7.142857142857143z" transform="rotate(0,290,120)"/><path d="M 286.42857142857144 136.42857142857142v 7.142857142857143h 7.142857142857143v -7.142857142857143z" transform="rotate(0,290,140)"/><path d="M 286.42857142857144 146.42857142857142v 7.142857142857143h 7.142857142857143v -7.142857142857143z" transform="rotate(0,290,150)"/><path d="M 286.42857142857144 156.42857142857142v 7.142857142857143h 7.142857142857143v -7.142857142857143z" transform="rotate(0,290,160)"/><path d="M 286.42857142857144 196.42857142857142v 7.142857142857143h 7.142857142857143v -7.142857142857143z" transform="rotate(0,290,200)"/><path d="M 286.42857142857144 206.42857142857142v 7.142857142857143h 7.142857142857143v -7.142857142857143z" transform="rotate(0,290,210)"/><path d="M 286.42857142857144 226.42857142857142v 7.142857142857143h 7.142857142857143v -7.142857142857143z" transform="rotate(0,290,230)"/><path d="M 286.42857142857144 236.42857142857142v 7.142857142857143h 7.142857142857143v -7.142857142857143z" transform="rotate(0,290,240)"/><path d="M 286.42857142857144 246.42857142857142v 7.142857142857143h 7.142857142857143v -7.142857142857143z" transform="rotate(0,290,250)"/><path d="M 286.42857142857144 256.42857142857144v 7.142857142857143h 7.142857142857143v -7.142857142857143z" transform="rotate(0,290,260)"/><path d="M 286.42857142857144 286.42857142857144v 7.142857142857143h 7.142857142857143v -7.142857142857143z" transform="rotate(0,290,290)"/></g><g class="green-dots"/><g class="corners-square-color-0-0"><path clip-rule="evenodd" d="M 5 15v 50a 10 10, 0, 0, 0, 10 10h 50a 10 10, 0, 0, 0, 10 -10v -50a 10 10, 0, 0, 0, -10 -10h -50a 10 10, 0, 0, 0, -10 10zM 20 15h 40a 5 5, 0, 0, 1, 5 5v 40a 5 5, 0, 0, 1, -5 5h -40a 5 5, 0, 0, 1, -5 -5v -40a 5 5, 0, 0, 1, 5 -5z" transform="rotate(0,40,40)"/></g><g class="corners-dot-color-0-0"><rect x="25" y="25" width="30" height="30" rx="7.5" ry="7.5" transform="rotate(0,40,40)"/></g><g class="corners-square-color-1-0"><path clip-rule="evenodd" d="M 225 15v 50a 10 10, 0, 0, 0, 10 10h 50a 10 10, 0, 0, 0, 10 -10v -50a 10 10, 0, 0, 0, -10 -10h -50a 10 10, 0, 0, 0, -10 10zM 240 15h 40a 5 5, 0, 0, 1, 5 5v 40a 5 5, 0, 0, 1, -5 5h -40a 5 5, 0, 0, 1, -5 -5v -40a 5 5, 0, 0, 1, 5 -5z" transform="rotate(90,260,40)"/></g><g class="corners-dot-color-1-0"><rect x="245" y="25" width="30" height="30" rx="7.5" ry="7.5" transform="rotate(90,260,40)"/></g><g class="corners-square-color-0-1"><path clip-rule="evenodd" d="M 5 235v 50a 10 10, 0, 0, 0, 10 10h 50a 10 10, 0, 0, 0, 10 -10v -50a 10 10, 0, 0, 0, -10 -10h -50a 10 10, 0, 0, 0, -10 10zM 20 235h 40a 5 5, 0, 0, 1, 5 5v 40a 5 5, 0, 0, 1, -5 5h -40a 5 5, 0, 0, 1, -5 -5v -40a 5 5, 0, 0, 1, 5 -5z" transform="rotate(-90,40,260)"/></g><g class="corners-dot-color-0-1"><rect x="25" y="245" width="30" height="30" rx="7.5" ry="7.5" transform="rotate(-90,40,260)"/></g></svg></g></svg></svg>