<svg width="171" height="21" viewBox="0 0 171 21" fill="none" xmlns="http://www.w3.org/2000/svg">
<g clip-path="url(#clip0_760_639)">
<path fill-rule="evenodd" clip-rule="evenodd" d="M16.414 0.440941C12.037 0.440941 9.301 2.62994 8.207 7.00694C9.849 4.81894 11.763 3.99694 13.952 4.54494C15.201 4.85694 16.093 5.76294 17.082 6.76494C18.69 8.39894 20.553 10.2899 24.622 10.2899C28.998 10.2899 31.734 8.10094 32.828 3.72394C31.187 5.91294 29.272 6.73394 27.083 6.18594C25.835 5.87394 24.943 4.96794 23.954 3.96594C22.345 2.33194 20.482 0.439941 16.414 0.439941V0.440941ZM8.207 10.2899C3.83 10.2899 1.094 12.4789 0 16.8559C1.641 14.6669 3.556 13.8459 5.745 14.3929C6.994 14.7059 7.886 15.6109 8.875 16.6139C10.483 18.2479 12.346 20.1379 16.415 20.1379C20.791 20.1379 23.527 17.9499 24.621 13.5729C22.98 15.7609 21.065 16.5819 18.876 16.0349C17.628 15.7229 16.736 14.8169 15.747 13.8149C14.137 12.1809 12.275 10.2899 8.207 10.2899Z" fill="#00BCFF"/>
<path d="M50.135 7.576V5.216H47.323V2.042L44.873 2.768V5.218H42.787V7.577H44.873V13.02C44.873 15.969 46.37 17.012 50.135 16.558V14.358C48.275 14.449 47.323 14.472 47.323 13.02V7.576H50.135ZM60.874 5.217V6.827C60.012 5.647 58.674 4.922 56.904 4.922C53.82 4.922 51.257 7.508 51.257 10.887C51.257 14.244 53.82 16.852 56.905 16.852C58.674 16.852 60.012 16.126 60.874 14.924V16.557H63.324V5.217H60.874ZM57.29 14.517C55.249 14.517 53.706 12.997 53.706 10.887C53.706 8.777 55.249 7.258 57.29 7.258C59.331 7.258 60.874 8.778 60.874 10.888C60.874 12.996 59.331 14.516 57.29 14.516V14.517ZM67.403 3.516C68.265 3.516 68.968 2.79 68.968 1.951C68.968 1.089 68.265 0.386 67.403 0.386C66.541 0.386 65.838 1.089 65.838 1.951C65.838 2.79 66.542 3.516 67.403 3.516ZM66.18 16.557H68.63V5.217H66.18V16.557ZM71.472 16.557H73.922V0H71.472V16.557ZM89.83 5.217L87.608 13.042L85.249 5.217H82.913L80.531 13.042L78.331 5.217H75.746L79.306 16.557H81.711L84.092 8.914L86.452 16.557H88.855L92.416 5.217H89.83ZM95.445 3.516C96.307 3.516 97.01 2.79 97.01 1.951C97.01 1.089 96.307 0.386 95.445 0.386C94.583 0.386 93.88 1.089 93.88 1.951C93.88 2.79 94.583 3.516 95.445 3.516ZM94.22 16.557H96.67V5.217H94.22V16.557ZM105.479 4.922C103.937 4.922 102.712 5.489 101.964 6.668V5.217H99.514V16.557H101.964V10.48C101.964 8.166 103.234 7.214 104.844 7.214C106.387 7.214 107.385 8.121 107.385 9.844V16.558H109.834V9.594C109.834 6.646 108.02 4.922 105.479 4.922ZM121.454 0.68V6.827C120.592 5.647 119.254 4.922 117.484 4.922C114.4 4.922 111.837 7.508 111.837 10.887C111.837 14.244 114.4 16.852 117.484 16.852C119.254 16.852 120.592 16.126 121.454 14.924V16.557H123.903V0.68H121.454ZM117.87 14.516C115.829 14.516 114.286 12.996 114.286 10.887C114.286 8.777 115.829 7.258 117.87 7.258C119.911 7.258 121.454 8.778 121.454 10.888C121.454 12.996 119.911 14.516 117.87 14.516Z" fill="#F1F1F1"/>
<path d="M133.181 4.85891H128.819V16.5579H131.125V12.7139H133.181C135.437 12.7139 137.175 10.9759 137.175 8.78591C137.175 6.59691 135.437 4.85891 133.181 4.85891ZM133.181 10.5579H131.125V7.01491H133.181C134.167 7.01491 134.886 7.76691 134.886 8.78591C134.886 9.78891 134.167 10.5579 133.181 10.5579ZM142.654 14.3519V4.85891H140.348V16.5579H147.117V14.3519H142.654ZM157.945 16.5579H160.452L156.341 4.85791H153.483L149.388 16.5579H151.879L152.58 14.4519H157.243L157.945 16.5579ZM153.316 12.2959L154.92 7.51591L156.525 12.2959H153.316ZM171 4.85891H168.393L165.853 9.73891L163.312 4.85891H160.705L164.7 11.9949V16.5579H166.989V11.9949L171 4.85891Z" fill="#00BCFF"/>
</g>
<defs>
<clipPath id="clip0_760_639">
<rect width="171" height="21" fill="white"/>
</clipPath>
</defs>
</svg>
