<svg width="1064" height="665" viewBox="0 0 1064 665" fill="none" xmlns="http://www.w3.org/2000/svg">
<g opacity="0.8">
<path d="M582.324 164.493C581.039 158.128 579.782 152.025 578.548 145.922C578.296 144.706 578.12 143.848 578.056 142.272C577.996 141.102 577.923 138.618 579.191 138.82C580.221 139.096 580.917 139.423 581.56 141.495C583.192 146.853 584.014 152.411 584.859 157.921C585.603 162.786 586.095 166.508 586.498 170.852C586.687 172.88 585.692 173.703 583.826 173.483C582.152 173.286 580.43 173.112 578.824 172.604C573.024 170.8 567.294 168.853 561.517 166.954C560.798 166.722 560.224 166.585 559.407 166.187C558.423 165.696 557.679 165.393 557.955 164.363C558.208 163.381 559.641 163.414 560.36 163.574C566.392 164.777 578.795 167.468 579.488 167.46C577.449 164.352 575.627 161.433 573.639 158.61C559.699 139.022 544.482 120.594 525.076 106.007C509.715 94.4607 493.252 84.9322 475.334 77.951C474.279 77.5319 473.246 77.017 472.262 76.5017C470.917 75.8228 470.337 75.2316 470.64 74.5118C471.392 73.2378 472.421 73.4661 473.258 73.5768C474.933 73.7745 476.587 74.3307 478.193 74.8635C499.602 82.2147 518.407 94.0601 535.732 108.429C553.515 123.176 567.272 141.285 579.536 160.628C580.144 161.672 581.89 164.115 582.324 164.493Z" fill="#CCCCCC"/>
</g>
<g opacity="0.5" filter="url(#filter0_dd_948_722)">
<rect x="581.71" y="249.131" width="382.5" height="382.5" rx="24.25" transform="rotate(-10 581.71 249.131)" stroke="#A7A7A7" stroke-width="0.5" shape-rendering="crispEdges"/>
</g>
<g clip-path="url(#clip0_948_722)">
<path d="M688.437 584.608L683.236 592.03C682.522 593.049 681.434 593.742 680.209 593.958C678.985 594.173 677.725 593.894 676.706 593.18C675.688 592.467 674.994 591.378 674.779 590.154C674.563 588.929 674.843 587.669 675.556 586.651L681.78 577.788C682.256 577.109 682.982 576.647 683.798 576.503C684.202 576.432 684.617 576.441 685.017 576.53C685.418 576.619 685.797 576.786 686.133 577.021C686.469 577.257 686.756 577.556 686.976 577.902C687.197 578.249 687.347 578.635 687.418 579.039C687.489 579.443 687.48 579.858 687.391 580.258C687.302 580.659 687.135 581.038 686.9 581.374L686.889 581.389L680.769 589.784C680.697 589.883 680.605 589.968 680.5 590.032C680.395 590.096 680.278 590.139 680.156 590.158C680.035 590.177 679.911 590.171 679.791 590.143C679.671 590.114 679.558 590.061 679.459 589.989C679.36 589.916 679.275 589.825 679.211 589.72C679.147 589.614 679.104 589.498 679.085 589.376C679.066 589.254 679.071 589.13 679.1 589.011C679.129 588.891 679.182 588.778 679.254 588.679L685.368 580.293C685.558 580.02 685.631 579.684 685.572 579.358C685.514 579.031 685.328 578.742 685.056 578.552C684.921 578.459 684.769 578.392 684.609 578.357C684.448 578.322 684.283 578.319 684.121 578.348C683.795 578.407 683.505 578.593 683.316 578.865L677.091 587.726C676.663 588.337 676.496 589.093 676.625 589.828C676.69 590.191 676.825 590.539 677.023 590.851C677.222 591.162 677.48 591.431 677.783 591.643C678.085 591.855 678.427 592.005 678.787 592.085C679.148 592.165 679.521 592.173 679.885 592.109C680.619 591.979 681.272 591.563 681.7 590.952L686.901 583.529C686.972 583.428 687.062 583.342 687.166 583.276C687.27 583.21 687.386 583.165 687.507 583.143C687.629 583.122 687.753 583.125 687.874 583.151C687.994 583.178 688.108 583.228 688.209 583.299C688.31 583.37 688.396 583.46 688.463 583.564C688.529 583.668 688.574 583.784 688.595 583.905C688.617 584.027 688.614 584.151 688.587 584.271C688.561 584.392 688.511 584.506 688.44 584.607L688.437 584.608Z" fill="#999999"/>
</g>
<path d="M708.508 574.673L710.529 586.132L708.94 586.412L701.633 579.035L701.527 579.054L703.009 587.458L701.28 587.763L699.259 576.303L700.859 576.021L708.174 583.409L708.28 583.39L706.796 574.974L708.508 574.673ZM716.568 585.246C715.762 585.388 715.026 585.328 714.361 585.064C713.695 584.801 713.138 584.366 712.688 583.761C712.239 583.155 711.937 582.409 711.78 581.521C711.623 580.629 711.651 579.82 711.866 579.094C712.08 578.368 712.455 577.767 712.99 577.292C713.526 576.817 714.196 576.508 715.002 576.366C715.808 576.224 716.544 576.285 717.209 576.548C717.875 576.812 718.433 577.248 718.882 577.857C719.332 578.466 719.636 579.217 719.793 580.108C719.949 580.996 719.92 581.801 719.705 582.524C719.49 583.246 719.115 583.845 718.58 584.32C718.044 584.795 717.374 585.104 716.568 585.246ZM716.326 583.841C716.848 583.749 717.256 583.534 717.551 583.198C717.845 582.861 718.034 582.449 718.118 581.961C718.205 581.473 718.199 580.953 718.102 580.4C718.005 579.852 717.833 579.363 717.584 578.934C717.338 578.5 717.019 578.174 716.626 577.955C716.234 577.735 715.777 577.672 715.254 577.764C714.728 577.857 714.317 578.074 714.019 578.415C713.725 578.755 713.535 579.171 713.449 579.663C713.365 580.151 713.372 580.669 713.469 581.217C713.566 581.769 713.737 582.26 713.982 582.69C714.231 583.12 714.552 583.442 714.943 583.658C715.339 583.872 715.8 583.933 716.326 583.841ZM724.908 574.735L725.144 576.078L720.45 576.906L720.213 575.563L724.908 574.735ZM721.109 573.282L722.782 572.987L724.216 581.117C724.273 581.441 724.364 581.677 724.49 581.824C724.616 581.967 724.76 582.055 724.923 582.088C725.09 582.116 725.265 582.115 725.447 582.082C725.582 582.059 725.698 582.029 725.795 581.992C725.892 581.956 725.968 581.927 726.022 581.906L726.568 583.235C726.478 583.289 726.346 583.351 726.174 583.42C726.002 583.492 725.782 583.554 725.514 583.605C725.075 583.69 724.651 583.684 724.242 583.587C723.832 583.49 723.48 583.291 723.184 582.989C722.889 582.687 722.695 582.277 722.604 581.759L721.109 573.282ZM731.916 582.54C731.07 582.689 730.308 582.637 729.633 582.383C728.96 582.124 728.4 581.694 727.951 581.093C727.506 580.487 727.205 579.738 727.048 578.846C726.892 577.966 726.92 577.161 727.129 576.432C727.343 575.702 727.713 575.096 728.24 574.615C728.77 574.133 729.435 573.821 730.233 573.68C730.718 573.595 731.202 573.592 731.685 573.672C732.169 573.753 732.622 573.932 733.044 574.212C733.466 574.491 733.83 574.887 734.136 575.398C734.441 575.906 734.662 576.55 734.8 577.329L734.904 577.922L728.072 579.127L727.851 577.874L733.044 576.958C732.966 576.518 732.808 576.144 732.569 575.836C732.329 575.524 732.03 575.298 731.67 575.158C731.315 575.017 730.921 574.984 730.488 575.061C730.018 575.143 729.628 575.331 729.318 575.625C729.011 575.913 728.795 576.259 728.67 576.662C728.548 577.06 728.525 577.474 728.601 577.903L728.773 578.882C728.874 579.457 729.061 579.928 729.334 580.295C729.61 580.662 729.95 580.919 730.353 581.067C730.755 581.212 731.201 581.241 731.689 581.155C732.006 581.099 732.288 581.003 732.533 580.868C732.778 580.728 732.979 580.55 733.137 580.334C733.295 580.118 733.401 579.866 733.454 579.58L735.088 579.586C735.043 580.075 734.888 580.523 734.621 580.932C734.358 581.336 733.997 581.679 733.539 581.959C733.084 582.236 732.543 582.429 731.916 582.54ZM744.073 576.848C743.621 576.928 743.19 576.89 742.778 576.736C742.366 576.578 742.014 576.332 741.725 575.999C741.439 575.664 741.256 575.272 741.177 574.82C741.096 574.365 741.134 573.933 741.289 573.525C741.447 573.113 741.693 572.764 742.027 572.478C742.361 572.188 742.753 572.004 743.205 571.924C743.66 571.844 744.092 571.883 744.5 572.042C744.912 572.196 745.261 572.44 745.547 572.775C745.836 573.104 746.02 573.497 746.101 573.952C746.18 574.403 746.141 574.835 745.983 575.248C745.829 575.66 745.585 576.01 745.251 576.3C744.921 576.585 744.528 576.768 744.073 576.848ZM756.414 566.225L758.435 577.685L756.7 577.991L754.986 568.266L754.918 568.278L752.492 570.552L752.2 568.895L754.73 566.522L756.414 566.225ZM765.727 576.399L764.212 567.804L765.818 567.521L766.064 568.92L766.171 568.901C766.266 568.396 766.494 567.975 766.854 567.639C767.213 567.298 767.676 567.078 768.243 566.978C768.818 566.877 769.323 566.926 769.758 567.127C770.197 567.326 770.551 567.644 770.821 568.082L770.91 568.066C771.034 567.571 771.296 567.148 771.696 566.796C772.095 566.441 772.604 566.209 773.223 566.1C774.003 565.963 774.682 566.095 775.261 566.497C775.843 566.898 776.221 567.591 776.394 568.576L777.411 574.339L775.738 574.634L774.749 569.027C774.646 568.445 774.414 568.052 774.05 567.847C773.687 567.641 773.286 567.578 772.845 567.655C772.301 567.751 771.907 567.994 771.664 568.383C771.42 568.768 771.345 569.222 771.437 569.744L772.403 575.222L770.735 575.516L769.728 569.803C769.646 569.337 769.434 568.988 769.093 568.755C768.752 568.523 768.349 568.448 767.882 568.53C767.565 568.586 767.287 568.722 767.048 568.937C766.812 569.148 766.638 569.415 766.526 569.739C766.418 570.062 766.398 570.417 766.466 570.805L767.4 576.104L765.727 576.399ZM783.304 573.479C782.498 573.621 781.762 573.56 781.097 573.297C780.431 573.033 779.874 572.599 779.425 571.993C778.976 571.388 778.673 570.641 778.516 569.754C778.359 568.862 778.387 568.053 778.602 567.327C778.816 566.601 779.191 566 779.726 565.525C780.262 565.049 780.932 564.741 781.738 564.599C782.544 564.457 783.28 564.517 783.945 564.781C784.611 565.044 785.169 565.48 785.618 566.09C786.068 566.699 786.372 567.449 786.529 568.341C786.685 569.229 786.656 570.034 786.441 570.756C786.226 571.479 785.851 572.078 785.316 572.553C784.78 573.028 784.11 573.337 783.304 573.479ZM783.062 572.073C783.584 571.981 783.993 571.767 784.287 571.43C784.582 571.094 784.77 570.682 784.854 570.194C784.941 569.705 784.935 569.185 784.838 568.633C784.741 568.085 784.569 567.596 784.32 567.167C784.074 566.733 783.755 566.407 783.363 566.187C782.97 565.968 782.513 565.905 781.99 565.997C781.464 566.089 781.053 566.306 780.755 566.647C780.461 566.987 780.271 567.404 780.185 567.896C780.102 568.384 780.108 568.902 780.205 569.45C780.302 570.002 780.474 570.493 780.719 570.923C780.967 571.352 781.288 571.675 781.68 571.89C782.075 572.105 782.536 572.166 783.062 572.073ZM789.92 566.872L790.82 571.975L789.147 572.27L787.632 563.675L789.238 563.392L789.484 564.791L789.591 564.772C789.708 564.282 789.953 563.862 790.326 563.511C790.703 563.16 791.214 562.928 791.859 562.814C792.445 562.711 792.979 562.744 793.463 562.912C793.946 563.077 794.351 563.379 794.678 563.817C795.006 564.256 795.232 564.829 795.357 565.538L796.321 571.005L794.648 571.3L793.719 566.034C793.609 565.411 793.361 564.953 792.975 564.66C792.588 564.363 792.111 564.264 791.544 564.364C791.156 564.432 790.826 564.577 790.553 564.798C790.284 565.019 790.091 565.307 789.973 565.662C789.858 566.013 789.84 566.416 789.92 566.872ZM801.061 561.307L801.298 562.65L796.603 563.478L796.366 562.135L801.061 561.307ZM797.262 559.854L798.935 559.559L800.369 567.689C800.426 568.013 800.518 568.249 800.644 568.396C800.769 568.54 800.913 568.628 801.077 568.66C801.243 568.689 801.418 568.687 801.601 568.654C801.735 568.631 801.851 568.601 801.948 568.564C802.046 568.528 802.121 568.499 802.175 568.478L802.721 569.807C802.631 569.861 802.499 569.923 802.327 569.992C802.155 570.064 801.935 570.126 801.667 570.177C801.228 570.262 800.804 570.256 800.395 570.159C799.985 570.062 799.633 569.863 799.337 569.561C799.042 569.259 798.848 568.849 798.757 568.331L797.262 559.854ZM805.385 564.145L806.285 569.248L804.612 569.543L802.591 558.083L804.242 557.792L804.994 562.056L805.1 562.037C805.22 561.539 805.463 561.117 805.829 560.772C806.195 560.427 806.712 560.195 807.38 560.077C807.969 559.974 808.505 560.004 808.988 560.169C809.475 560.333 809.882 560.634 810.209 561.073C810.539 561.507 810.768 562.082 810.894 562.798L811.858 568.265L810.185 568.56L809.256 563.295C809.145 562.664 808.897 562.204 808.511 561.915C808.125 561.621 807.643 561.525 807.064 561.627C806.669 561.697 806.329 561.843 806.046 562.067C805.766 562.289 805.565 562.578 805.443 562.934C805.324 563.286 805.305 563.69 805.385 564.145ZM820.795 566.885C820.251 566.981 819.741 566.967 819.265 566.844C818.789 566.716 818.387 566.481 818.062 566.138C817.74 565.795 817.529 565.342 817.43 564.779C817.344 564.294 817.367 563.878 817.498 563.532C817.629 563.186 817.838 562.893 818.122 562.655C818.407 562.416 818.737 562.215 819.112 562.053C819.488 561.891 819.874 561.749 820.272 561.629C820.777 561.479 821.186 561.357 821.5 561.263C821.814 561.165 822.035 561.059 822.165 560.944C822.295 560.828 822.342 560.67 822.306 560.469L822.299 560.429C822.213 559.941 822.008 559.587 821.685 559.367C821.365 559.146 820.935 559.083 820.394 559.179C819.831 559.278 819.409 559.481 819.129 559.789C818.851 560.091 818.678 560.405 818.608 560.728L816.972 560.648C817.067 560.092 817.265 559.623 817.566 559.239C817.871 558.851 818.245 558.542 818.69 558.314C819.133 558.082 819.615 557.92 820.133 557.829C820.476 557.768 820.847 557.745 821.246 557.759C821.648 557.769 822.035 557.851 822.408 558.004C822.785 558.157 823.117 558.412 823.403 558.769C823.688 559.123 823.886 559.613 823.997 560.24L825.003 565.947L823.369 566.235L823.162 565.06L823.095 565.072C823.025 565.308 822.9 565.549 822.721 565.796C822.541 566.043 822.294 566.265 821.979 566.463C821.664 566.661 821.269 566.802 820.795 566.885ZM820.922 565.478C821.385 565.397 821.764 565.236 822.06 564.995C822.36 564.754 822.57 564.47 822.689 564.146C822.812 563.816 822.843 563.482 822.784 563.142L822.588 562.034C822.539 562.105 822.433 562.181 822.271 562.263C822.112 562.342 821.927 562.418 821.717 562.494C821.507 562.565 821.302 562.634 821.102 562.7C820.901 562.763 820.733 562.815 820.599 562.858C820.281 562.957 819.997 563.078 819.746 563.222C819.498 563.366 819.31 563.543 819.182 563.754C819.057 563.961 819.02 564.214 819.073 564.512C819.146 564.926 819.354 565.212 819.698 565.371C820.04 565.526 820.449 565.562 820.922 565.478ZM831.435 568.321C830.752 568.441 830.149 568.455 829.625 568.363C829.105 568.27 828.664 568.104 828.302 567.864C827.941 567.624 827.653 567.342 827.438 567.018L828.771 566.171C828.901 566.318 829.066 566.467 829.266 566.621C829.47 566.777 829.73 566.895 830.044 566.974C830.361 567.053 830.751 567.051 831.214 566.969C831.848 566.858 832.345 566.61 832.704 566.228C833.065 565.849 833.185 565.324 833.067 564.652L832.769 562.962L832.663 562.981C832.594 563.182 832.485 563.411 832.334 563.668C832.187 563.925 831.964 564.164 831.664 564.386C831.365 564.608 830.952 564.766 830.426 564.858C829.747 564.978 829.108 564.927 828.507 564.706C827.91 564.481 827.397 564.085 826.971 563.518C826.547 562.946 826.254 562.203 826.093 561.289C825.932 560.376 825.949 559.565 826.143 558.857C826.341 558.149 826.682 557.574 827.166 557.131C827.648 556.684 828.235 556.4 828.925 556.278C829.458 556.184 829.905 556.198 830.265 556.319C830.624 556.437 830.916 556.597 831.14 556.799C831.368 557.002 831.548 557.183 831.68 557.345L831.804 557.323L831.558 555.93L833.197 555.64L834.746 564.425C834.877 565.164 834.812 565.8 834.552 566.335C834.293 566.869 833.89 567.302 833.344 567.632C832.803 567.963 832.166 568.192 831.435 568.321ZM830.551 563.405C831.032 563.321 831.419 563.137 831.712 562.855C832.007 562.568 832.204 562.199 832.301 561.747C832.401 561.291 832.399 560.766 832.295 560.173C832.193 559.595 832.017 559.101 831.768 558.691C831.519 558.281 831.206 557.982 830.831 557.794C830.455 557.603 830.022 557.55 829.534 557.637C829.03 557.725 828.633 557.93 828.344 558.25C828.053 558.567 827.862 558.962 827.768 559.436C827.679 559.91 827.682 560.421 827.779 560.969C827.878 561.532 828.051 562.012 828.298 562.407C828.544 562.802 828.857 563.089 829.234 563.268C829.616 563.447 830.055 563.493 830.551 563.405ZM840.607 563.375C839.802 563.517 839.066 563.456 838.4 563.193C837.735 562.929 837.177 562.495 836.728 561.889C836.279 561.284 835.976 560.537 835.82 559.649C835.662 558.758 835.691 557.949 835.905 557.223C836.12 556.496 836.494 555.896 837.03 555.42C837.565 554.945 838.236 554.637 839.042 554.495C839.847 554.352 840.583 554.413 841.249 554.677C841.915 554.94 842.472 555.376 842.922 555.985C843.372 556.595 843.675 557.345 843.832 558.237C843.989 559.124 843.96 559.93 843.745 560.652C843.53 561.375 843.155 561.974 842.619 562.449C842.084 562.924 841.413 563.233 840.607 563.375ZM840.365 561.969C840.888 561.877 841.296 561.663 841.591 561.326C841.885 560.99 842.074 560.577 842.157 560.09C842.244 559.601 842.239 559.081 842.142 558.529C842.045 557.981 841.872 557.492 841.623 557.063C841.378 556.629 841.059 556.302 840.666 556.083C840.274 555.864 839.816 555.8 839.294 555.892C838.768 555.985 838.356 556.202 838.059 556.543C837.765 556.883 837.575 557.3 837.488 557.792C837.405 558.279 837.412 558.798 837.509 559.346C837.606 559.898 837.777 560.389 838.022 560.819C838.271 561.248 838.591 561.57 838.983 561.786C839.379 562.001 839.839 562.062 840.365 561.969Z" fill="#999999"/>
<g clip-path="url(#clip1_948_722)">
<path d="M979.65 533.22L980.518 538.144C980.561 538.389 980.506 538.641 980.363 538.845C980.22 539.049 980.003 539.187 979.758 539.23C979.513 539.274 979.261 539.218 979.057 539.075C978.854 538.932 978.715 538.715 978.672 538.47L978.197 535.777L974.425 541.161C974.355 541.262 974.265 541.349 974.161 541.415C974.057 541.481 973.941 541.526 973.819 541.548C973.698 541.569 973.573 541.566 973.453 541.54C973.332 541.513 973.218 541.463 973.117 541.392C973.016 541.321 972.93 541.231 972.864 541.127C972.798 541.023 972.753 540.907 972.731 540.786C972.71 540.664 972.713 540.54 972.739 540.42C972.766 540.299 972.816 540.185 972.887 540.084L976.658 534.7L973.965 535.175C973.721 535.218 973.469 535.162 973.265 535.019C973.061 534.877 972.923 534.659 972.879 534.414C972.836 534.169 972.892 533.917 973.035 533.714C973.177 533.51 973.395 533.371 973.64 533.328L978.564 532.46C978.809 532.417 979.061 532.472 979.264 532.615C979.468 532.758 979.607 532.975 979.65 533.22ZM984.032 523.88L974.184 525.616C973.776 525.688 973.413 525.919 973.175 526.259C972.938 526.598 972.845 527.018 972.917 527.426L973.514 530.812C973.557 531.057 973.695 531.274 973.899 531.417C974.103 531.56 974.355 531.615 974.6 531.572C974.844 531.529 975.062 531.39 975.205 531.187C975.347 530.983 975.403 530.731 975.36 530.486L974.817 527.409L984.05 525.781L985.678 535.013L982.6 535.556C982.356 535.599 982.138 535.738 981.995 535.941C981.853 536.145 981.797 536.397 981.84 536.642C981.883 536.887 982.022 537.105 982.225 537.247C982.429 537.39 982.681 537.446 982.926 537.402L986.311 536.806C986.719 536.734 987.082 536.502 987.32 536.163C987.558 535.824 987.651 535.404 987.579 534.995L985.842 525.147C985.77 524.739 985.539 524.376 985.2 524.139C984.86 523.901 984.44 523.808 984.032 523.88Z" fill="#999999"/>
</g>
<path d="M635.194 303.75L625.92 305.386L620.868 276.737L630.436 275.05C633.244 274.555 635.755 274.703 637.972 275.495C640.187 276.278 642.019 277.642 643.468 279.589C644.925 281.524 645.915 283.979 646.44 286.954C646.966 289.939 646.873 292.599 646.16 294.937C645.456 297.272 644.181 299.199 642.333 300.718C640.483 302.226 638.104 303.237 635.194 303.75ZM629.576 300.847L634.29 300.015C636.473 299.631 638.214 298.9 639.515 297.825C640.814 296.74 641.685 295.351 642.127 293.657C642.567 291.955 642.587 289.97 642.187 287.704C641.791 285.457 641.096 283.613 640.101 282.173C639.116 280.731 637.848 279.729 636.297 279.165C634.746 278.602 632.926 278.505 630.837 278.873L625.857 279.752L629.576 300.847ZM654.013 300.432L650.224 278.945L654.267 278.233L654.869 281.646L655.092 281.606C655.28 280.381 655.81 279.35 656.682 278.514C657.561 277.666 658.63 277.131 659.889 276.909C660.151 276.863 660.46 276.818 660.818 276.775C661.185 276.729 661.473 276.702 661.683 276.694L662.389 280.695C662.213 280.678 661.905 280.679 661.466 280.699C661.026 280.709 660.591 280.752 660.162 280.828C659.174 281.002 658.329 281.367 657.629 281.924C656.937 282.469 656.432 283.149 656.114 283.965C655.795 284.771 655.717 285.641 655.882 286.573L658.195 299.695L654.013 300.432ZM675.275 297.173C673.914 297.413 672.638 297.379 671.449 297.069C670.258 296.75 669.256 296.163 668.441 295.306C667.636 294.448 667.109 293.315 666.861 291.907C666.647 290.694 666.704 289.655 667.033 288.79C667.361 287.924 667.881 287.193 668.593 286.596C669.305 286 670.13 285.498 671.068 285.093C672.006 284.687 672.973 284.334 673.968 284.033C675.229 283.657 676.252 283.352 677.038 283.117C677.821 282.873 678.376 282.607 678.7 282.319C679.024 282.031 679.142 281.635 679.053 281.132L679.036 281.034C678.82 279.812 678.308 278.926 677.5 278.377C676.701 277.825 675.625 277.669 674.273 277.907C672.864 278.155 671.81 278.663 671.109 279.431C670.415 280.188 669.981 280.972 669.807 281.781L665.718 281.579C665.954 280.191 666.449 279.017 667.203 278.058C667.964 277.087 668.9 276.316 670.011 275.745C671.121 275.165 672.323 274.76 673.62 274.532C674.478 274.38 675.405 274.323 676.402 274.358C677.406 274.383 678.375 274.587 679.308 274.971C680.25 275.353 681.079 275.991 681.794 276.884C682.508 277.768 683.003 278.993 683.279 280.56L685.795 294.828L681.71 295.548L681.192 292.611L681.025 292.64C680.849 293.229 680.537 293.832 680.089 294.45C679.64 295.067 679.022 295.623 678.234 296.118C677.446 296.613 676.46 296.965 675.275 297.173ZM675.593 293.656C676.749 293.452 677.697 293.049 678.438 292.447C679.187 291.844 679.711 291.136 680.01 290.324C680.317 289.5 680.396 288.664 680.246 287.816L679.758 285.046C679.635 285.222 679.37 285.412 678.964 285.619C678.566 285.814 678.105 286.006 677.58 286.194C677.054 286.374 676.541 286.546 676.041 286.711C675.54 286.867 675.121 286.998 674.784 287.106C673.991 287.351 673.28 287.655 672.651 288.016C672.032 288.375 671.562 288.818 671.241 289.346C670.929 289.863 670.838 290.494 670.97 291.24C671.152 292.275 671.673 292.991 672.531 293.388C673.388 293.775 674.408 293.865 675.593 293.656ZM701.875 300.762C700.168 301.063 698.66 301.099 697.35 300.868C696.049 300.636 694.947 300.219 694.043 299.619C693.139 299.019 692.418 298.314 691.882 297.505L695.215 295.388C695.539 295.754 695.952 296.129 696.452 296.512C696.963 296.902 697.611 297.197 698.396 297.395C699.19 297.591 700.166 297.588 701.322 297.384C702.907 297.104 704.149 296.486 705.048 295.53C705.948 294.582 706.251 293.269 705.955 291.591L705.21 287.366L704.944 287.413C704.773 287.914 704.499 288.487 704.122 289.13C703.754 289.772 703.196 290.37 702.448 290.925C701.699 291.48 700.668 291.874 699.353 292.106C697.656 292.405 696.056 292.278 694.555 291.726C693.061 291.162 691.781 290.172 690.713 288.754C689.654 287.325 688.923 285.469 688.52 283.184C688.117 280.899 688.159 278.872 688.645 277.104C689.14 275.334 689.993 273.895 691.201 272.787C692.408 271.671 693.874 270.96 695.6 270.656C696.933 270.421 698.05 270.455 698.949 270.758C699.847 271.051 700.577 271.452 701.137 271.959C701.707 272.464 702.157 272.918 702.488 273.321L702.796 273.267L702.182 269.784L706.28 269.061L710.153 291.024C710.479 292.87 710.317 294.461 709.668 295.797C709.018 297.132 708.012 298.214 706.648 299.041C705.294 299.866 703.702 300.44 701.875 300.762ZM699.664 288.474C700.867 288.262 701.835 287.803 702.566 287.097C703.305 286.38 703.796 285.457 704.039 284.327C704.29 283.187 704.285 281.875 704.023 280.392C703.768 278.947 703.33 277.712 702.706 276.687C702.083 275.662 701.303 274.915 700.364 274.446C699.424 273.967 698.343 273.836 697.121 274.051C695.862 274.273 694.871 274.785 694.147 275.586C693.421 276.377 692.941 277.365 692.708 278.551C692.484 279.735 692.493 281.012 692.734 282.383C692.983 283.791 693.415 284.989 694.032 285.976C694.648 286.964 695.429 287.682 696.373 288.131C697.327 288.578 698.424 288.692 699.664 288.474ZM734.512 286.656C732.591 286.995 730.874 286.937 729.361 286.483C727.858 286.027 726.627 285.263 725.669 284.191C724.709 283.111 724.094 281.805 723.825 280.276C723.619 279.11 723.679 278.032 724.004 277.042C724.328 276.043 724.856 275.08 725.586 274.153C726.317 273.226 727.182 272.27 728.182 271.286L732.224 267.213C732.916 266.562 733.432 265.913 733.77 265.267C734.106 264.611 734.2 263.859 734.05 263.011C733.932 262.339 733.529 261.747 732.842 261.233C732.156 260.72 731.327 260.548 730.357 260.719C729.686 260.838 729.123 261.105 728.667 261.522C728.221 261.938 727.899 262.427 727.7 262.991C727.509 263.544 727.463 264.1 727.562 264.66C727.677 265.312 727.97 265.939 728.441 266.538C728.921 267.136 729.509 267.74 730.202 268.348C730.895 268.947 731.62 269.569 732.378 270.215L748.486 283.774L743.757 284.608L730.467 273.609C729.351 272.681 728.312 271.806 727.35 270.986C726.386 270.156 725.57 269.29 724.902 268.388C724.241 267.476 723.808 266.442 723.604 265.285C723.373 263.97 723.466 262.752 723.883 261.63C724.308 260.498 725.011 259.547 725.991 258.778C726.971 258.009 728.188 257.496 729.643 257.24C731.116 256.98 732.431 257.046 733.587 257.438C734.75 257.82 735.7 258.436 736.437 259.287C737.181 260.127 737.652 261.106 737.849 262.225C738.089 263.587 737.961 264.85 737.464 266.015C736.976 267.168 736.215 268.283 735.184 269.359L730.182 274.612C729.207 275.63 728.572 276.578 728.275 277.458C727.986 278.326 727.881 278.984 727.96 279.431C728.104 280.252 728.448 280.975 728.991 281.601C729.543 282.224 730.239 282.679 731.078 282.964C731.926 283.247 732.867 283.297 733.902 283.115C734.966 282.927 735.96 282.516 736.887 281.882C737.821 281.236 738.622 280.407 739.29 279.395C739.967 278.382 740.441 277.226 740.712 275.928C740.984 274.63 740.987 273.23 740.722 271.729L744.499 271.063C744.825 272.909 744.89 274.509 744.696 275.86C744.5 277.203 744.174 278.327 743.719 279.235C743.271 280.131 742.825 280.849 742.382 281.389C742.241 281.567 742.108 281.745 741.985 281.92C741.863 282.096 741.73 282.273 741.589 282.452C740.791 283.602 739.744 284.532 738.446 285.241C737.157 285.949 735.846 286.421 734.512 286.656ZM771.798 279.663L762.523 281.299L757.472 252.65L767.04 250.963C769.847 250.468 772.359 250.616 774.576 251.408C776.791 252.191 778.623 253.555 780.072 255.502C781.528 257.437 782.519 259.892 783.044 262.867C783.57 265.852 783.476 268.512 782.764 270.85C782.06 273.186 780.784 275.112 778.937 276.631C777.087 278.139 774.708 279.15 771.798 279.663ZM766.18 276.76L770.894 275.928C773.076 275.544 774.818 274.813 776.119 273.738C777.418 272.653 778.288 271.264 778.73 269.571C779.17 267.868 779.191 265.883 778.791 263.617C778.395 261.37 777.699 259.526 776.705 258.086C775.72 256.644 774.452 255.642 772.901 255.079C771.349 254.516 769.529 254.418 767.44 254.787L762.46 255.665L766.18 276.76ZM790.616 276.345L786.828 254.859L790.87 254.146L791.472 257.559L791.696 257.52C791.884 256.294 792.414 255.263 793.285 254.427C794.165 253.579 795.234 253.045 796.493 252.823C796.754 252.777 797.064 252.732 797.421 252.688C797.788 252.642 798.077 252.615 798.287 252.607L798.992 256.608C798.816 256.591 798.509 256.592 798.07 256.612C797.629 256.622 797.195 256.665 796.766 256.741C795.777 256.915 794.933 257.281 794.233 257.837C793.54 258.382 793.035 259.062 792.718 259.878C792.398 260.684 792.321 261.554 792.485 262.486L794.799 275.608L790.616 276.345ZM814.092 272.653C812.078 273.008 810.239 272.856 808.574 272.198C806.91 271.539 805.517 270.453 804.394 268.94C803.271 267.426 802.514 265.559 802.123 263.34C801.73 261.111 801.801 259.089 802.337 257.273C802.873 255.457 803.81 253.956 805.148 252.768C806.487 251.58 808.164 250.808 810.178 250.453C812.192 250.098 814.032 250.249 815.696 250.908C817.36 251.566 818.754 252.657 819.879 254.18C821.003 255.703 821.762 257.579 822.155 259.808C822.546 262.027 822.473 264.04 821.936 265.847C821.399 267.653 820.461 269.15 819.122 270.338C817.783 271.526 816.107 272.298 814.092 272.653ZM813.487 269.139C814.793 268.909 815.814 268.373 816.55 267.532C817.286 266.69 817.759 265.66 817.967 264.441C818.184 263.22 818.171 261.919 817.928 260.539C817.686 259.168 817.254 257.946 816.632 256.873C816.018 255.789 815.22 254.973 814.239 254.424C813.258 253.876 812.114 253.717 810.809 253.948C809.494 254.179 808.464 254.721 807.72 255.574C806.986 256.425 806.51 257.465 806.295 258.696C806.086 259.915 806.103 261.21 806.345 262.581C806.588 263.961 807.016 265.189 807.629 266.263C808.251 267.337 809.052 268.142 810.031 268.681C811.02 269.218 812.172 269.371 813.487 269.139ZM830.121 277.688L824.912 248.143L828.997 247.423L829.611 250.906L829.961 250.845C830.124 250.354 830.383 249.775 830.736 249.107C831.089 248.439 831.633 247.814 832.367 247.233C833.099 246.642 834.132 246.229 835.466 245.994C837.201 245.688 838.826 245.853 840.342 246.49C841.858 247.126 843.149 248.202 844.214 249.716C845.288 251.228 846.03 253.146 846.44 255.468C846.849 257.79 846.813 259.849 846.332 261.646C845.849 263.433 845.01 264.893 843.816 266.027C842.62 267.152 841.155 267.867 839.42 268.173C838.114 268.403 837.008 268.372 836.101 268.08C835.203 267.786 834.469 267.387 833.899 266.882C833.329 266.376 832.878 265.917 832.546 265.505L832.294 265.549L834.304 276.95L830.121 277.688ZM830.905 258.164C831.171 259.675 831.624 260.96 832.263 262.021C832.902 263.081 833.693 263.86 834.637 264.357C835.578 264.845 836.651 264.983 837.854 264.771C839.103 264.55 840.09 264.035 840.812 263.225C841.533 262.406 842.007 261.384 842.234 260.162C842.47 258.937 842.461 257.607 842.208 256.171C841.958 254.753 841.519 253.518 840.891 252.465C840.272 251.411 839.481 250.632 838.517 250.129C837.563 249.624 836.456 249.483 835.197 249.705C833.985 249.919 833.014 250.412 832.285 251.185C831.565 251.956 831.089 252.939 830.858 254.134C830.626 255.328 830.642 256.672 830.905 258.164Z" fill="#A3A3A3"/>
<path d="M628.868 333.45C628.389 330.731 630.205 328.138 632.924 327.658L773.752 302.826C776.471 302.347 779.064 304.163 779.544 306.882L780.412 311.806C780.892 314.526 779.076 317.119 776.356 317.599L635.529 342.43C632.809 342.91 630.216 341.094 629.736 338.374L628.868 333.45Z" fill="#E3E3E3"/>
<path d="M633.874 361.842C633.395 359.123 635.211 356.529 637.93 356.05L902.843 309.338C905.563 308.859 908.156 310.675 908.636 313.394L909.504 318.318C909.983 321.038 908.168 323.631 905.448 324.11L640.535 370.822C637.815 371.301 635.222 369.486 634.743 366.766L633.874 361.842Z" fill="#E3E3E3"/>
<path d="M638.91 390.402C638.431 387.682 640.247 385.089 642.966 384.609L729.629 369.328C732.349 368.849 734.942 370.665 735.421 373.384L736.29 378.308C736.769 381.028 734.953 383.621 732.234 384.1L645.571 399.381C642.851 399.861 640.258 398.045 639.778 395.326L638.91 390.402Z" fill="#E3E3E3"/>
<path d="M644.12 419.946C643.64 417.226 645.456 414.633 648.176 414.153L947.557 361.364C950.277 360.885 952.87 362.701 953.349 365.42L954.218 370.344C954.697 373.064 952.881 375.657 950.162 376.136L650.78 428.925C648.061 429.405 645.467 427.589 644.988 424.87L644.12 419.946Z" fill="#E3E3E3"/>
<path d="M649.156 448.505C648.676 445.786 650.492 443.192 653.211 442.713L925.018 394.786C927.738 394.306 930.331 396.122 930.811 398.842L931.679 403.766C932.158 406.485 930.343 409.079 927.623 409.558L655.816 457.485C653.097 457.964 650.503 456.149 650.024 453.429L649.156 448.505Z" fill="#E3E3E3"/>
<g opacity="0.5">
<g filter="url(#filter1_dd_948_722)">
<rect x="30.4572" y="43.8067" width="382.5" height="382.5" rx="24.25" transform="rotate(-2 30.4572 43.8067)" stroke="#E3E3E3" stroke-width="0.5" shape-rendering="crispEdges"/>
</g>
<g filter="url(#filter2_dd_948_722)">
<rect x="30.7158" y="44.0479" width="382" height="382" rx="24" transform="rotate(-2 30.7158 44.0479)" stroke="#B3B3B3" stroke-width="3" stroke-dasharray="33 33" shape-rendering="crispEdges"/>
</g>
<path d="M89.4556 390.873L83.2721 397.499C82.424 398.408 81.2494 398.943 80.0068 398.986C78.7642 399.03 77.5553 398.577 76.6461 397.729C75.7369 396.881 75.2018 395.706 75.1587 394.464C75.1155 393.221 75.5677 392.012 76.4158 391.103L83.813 383.192C84.3785 382.586 85.1616 382.23 85.99 382.201C86.4001 382.187 86.8091 382.254 87.1935 382.397C87.5779 382.541 87.9302 382.759 88.2303 383.039C88.5304 383.319 88.7724 383.656 88.9425 384.029C89.1126 384.403 89.2075 384.806 89.2217 385.216C89.2359 385.626 89.1692 386.035 89.0253 386.42C88.8815 386.804 88.6634 387.157 88.3834 387.457L88.3705 387.47L81.1422 394.931C81.0565 395.019 80.9542 395.09 80.8412 395.139C80.7281 395.188 80.6066 395.214 80.4835 395.216C80.3604 395.218 80.2381 395.195 80.1236 395.15C80.0091 395.105 79.9047 395.037 79.8163 394.952C79.7279 394.866 79.6572 394.764 79.6084 394.651C79.5595 394.538 79.5333 394.416 79.5314 394.293C79.5295 394.17 79.5519 394.047 79.5973 393.933C79.6426 393.819 79.7101 393.714 79.7958 393.626L87.0174 386.172C87.2428 385.929 87.3623 385.606 87.3497 385.275C87.3371 384.944 87.1934 384.631 86.9502 384.406C86.8298 384.294 86.6886 384.207 86.5347 384.15C86.3807 384.093 86.217 384.067 86.053 384.073C85.7217 384.086 85.4089 384.23 85.1835 384.473L77.7863 392.381C77.2776 392.927 77.0065 393.652 77.0327 394.398C77.0457 394.767 77.1312 395.13 77.2845 395.466C77.4377 395.802 77.6557 396.105 77.9259 396.357C78.1961 396.609 78.5133 396.805 78.8593 396.934C79.2054 397.063 79.5735 397.123 79.9427 397.11C80.6882 397.084 81.3929 396.763 81.9016 396.217L88.085 389.591C88.1691 389.501 88.2702 389.428 88.3824 389.377C88.4946 389.326 88.6158 389.297 88.7391 389.293C88.8623 389.289 88.9852 389.309 89.1008 389.352C89.2163 389.395 89.3222 389.461 89.4123 389.545C89.5025 389.629 89.5753 389.73 89.6264 389.842C89.6776 389.954 89.7061 390.075 89.7104 390.199C89.7147 390.322 89.6947 390.445 89.6515 390.56C89.6083 390.676 89.5428 390.782 89.4587 390.872L89.4556 390.873Z" fill="#999999"/>
<path d="M110.715 383.826L111.121 395.455L109.508 395.512L103.299 387.189L103.191 387.193L103.489 395.722L101.735 395.783L101.329 384.154L102.953 384.097L109.168 392.431L109.276 392.427L108.977 383.887L110.715 383.826ZM117.224 395.418C116.407 395.447 115.687 395.285 115.064 394.931C114.441 394.578 113.95 394.07 113.589 393.408C113.229 392.746 113.033 391.964 113.002 391.063C112.97 390.158 113.111 389.361 113.424 388.672C113.737 387.983 114.192 387.44 114.789 387.044C115.385 386.648 116.092 386.435 116.91 386.407C117.727 386.378 118.447 386.541 119.07 386.894C119.693 387.248 120.184 387.758 120.545 388.423C120.905 389.089 121.101 389.875 121.133 390.779C121.164 391.68 121.023 392.474 120.71 393.159C120.397 393.845 119.942 394.386 119.345 394.782C118.749 395.178 118.042 395.39 117.224 395.418ZM117.18 393.993C117.71 393.975 118.144 393.819 118.483 393.527C118.821 393.235 119.066 392.853 119.216 392.381C119.37 391.91 119.437 391.394 119.418 390.833C119.398 390.277 119.295 389.769 119.109 389.309C118.926 388.846 118.655 388.478 118.297 388.206C117.939 387.934 117.495 387.808 116.965 387.826C116.431 387.845 115.993 388.002 115.651 388.299C115.313 388.595 115.067 388.98 114.913 389.456C114.762 389.927 114.697 390.441 114.716 390.998C114.736 391.558 114.837 392.068 115.02 392.528C115.206 392.987 115.479 393.351 115.837 393.619C116.199 393.887 116.646 394.012 117.18 393.993ZM126.946 386.17L126.993 387.533L122.229 387.699L122.182 386.337L126.946 386.17ZM123.386 384.202L125.084 384.143L125.372 392.394C125.384 392.723 125.442 392.969 125.546 393.132C125.65 393.292 125.781 393.399 125.938 393.454C126.099 393.505 126.272 393.528 126.458 393.521C126.594 393.516 126.713 393.503 126.815 393.48C126.916 393.458 126.995 393.44 127.051 393.427L127.407 394.818C127.31 394.86 127.171 394.902 126.991 394.947C126.811 394.995 126.584 395.025 126.312 395.039C125.865 395.062 125.446 394.997 125.054 394.844C124.662 394.691 124.341 394.444 124.09 394.104C123.84 393.764 123.705 393.331 123.687 392.805L123.386 384.202ZM132.8 394.875C131.941 394.905 131.194 394.747 130.561 394.401C129.931 394.052 129.435 393.548 129.075 392.89C128.718 392.228 128.524 391.444 128.493 390.539C128.462 389.646 128.601 388.853 128.91 388.16C129.223 387.466 129.674 386.918 130.262 386.515C130.855 386.111 131.556 385.895 132.366 385.867C132.858 385.85 133.338 385.915 133.806 386.061C134.273 386.208 134.697 386.449 135.076 386.785C135.455 387.12 135.761 387.562 135.992 388.111C136.223 388.657 136.353 389.325 136.38 390.116L136.402 390.718L129.468 390.96L129.424 389.688L134.693 389.504C134.678 389.057 134.573 388.665 134.379 388.327C134.185 387.985 133.92 387.719 133.584 387.53C133.251 387.341 132.866 387.254 132.426 387.269C131.949 387.286 131.537 387.418 131.19 387.665C130.846 387.908 130.584 388.221 130.404 388.602C130.227 388.98 130.147 389.386 130.162 389.822L130.197 390.815C130.217 391.398 130.336 391.891 130.555 392.292C130.778 392.694 131.078 392.996 131.457 393.199C131.835 393.398 132.272 393.489 132.768 393.471C133.09 393.46 133.382 393.405 133.644 393.304C133.905 393.201 134.129 393.052 134.316 392.86C134.502 392.668 134.642 392.434 134.735 392.158L136.352 392.391C136.24 392.869 136.023 393.291 135.703 393.659C135.386 394.022 134.981 394.311 134.488 394.526C133.999 394.736 133.436 394.852 132.8 394.875ZM145.63 390.93C145.172 390.946 144.75 390.849 144.364 390.639C143.977 390.425 143.664 390.133 143.424 389.762C143.187 389.391 143.061 388.977 143.045 388.519C143.029 388.057 143.126 387.635 143.336 387.252C143.55 386.866 143.842 386.554 144.213 386.318C144.584 386.077 144.998 385.949 145.456 385.933C145.918 385.917 146.34 386.016 146.723 386.23C147.109 386.44 147.421 386.731 147.657 387.101C147.897 387.468 148.026 387.883 148.042 388.344C148.058 388.802 147.959 389.225 147.745 389.611C147.535 389.998 147.244 390.311 146.874 390.551C146.507 390.788 146.092 390.914 145.63 390.93ZM159.33 382.128L159.736 393.758L157.976 393.819L157.631 383.95L157.563 383.953L154.844 385.867L154.786 384.186L157.621 382.188L159.33 382.128ZM167.137 393.499L166.832 384.777L168.462 384.72L168.511 386.14L168.619 386.136C168.784 385.649 169.068 385.264 169.471 384.981C169.875 384.694 170.364 384.54 170.939 384.52C171.522 384.5 172.015 384.619 172.418 384.878C172.825 385.137 173.132 385.501 173.338 385.971L173.429 385.968C173.621 385.495 173.939 385.113 174.384 384.821C174.828 384.525 175.365 384.366 175.993 384.344C176.784 384.316 177.438 384.541 177.955 385.02C178.476 385.498 178.754 386.237 178.789 387.237L178.993 393.085L177.295 393.145L177.097 387.455C177.076 386.864 176.9 386.442 176.569 386.188C176.238 385.935 175.849 385.816 175.402 385.831C174.85 385.85 174.426 386.036 174.131 386.387C173.836 386.735 173.698 387.174 173.717 387.704L173.911 393.263L172.219 393.322L172.016 387.524C172 387.051 171.839 386.676 171.534 386.398C171.228 386.121 170.839 385.99 170.366 386.007C170.044 386.018 169.75 386.114 169.483 386.294C169.22 386.47 169.011 386.71 168.855 387.015C168.702 387.32 168.633 387.669 168.647 388.063L168.834 393.44L167.137 393.499ZM184.949 393.054C184.131 393.082 183.411 392.92 182.788 392.566C182.166 392.213 181.674 391.705 181.314 391.043C180.953 390.381 180.757 389.599 180.726 388.698C180.694 387.793 180.835 386.996 181.148 386.307C181.462 385.618 181.916 385.075 182.513 384.679C183.109 384.283 183.816 384.071 184.634 384.042C185.452 384.013 186.172 384.176 186.794 384.529C187.417 384.883 187.908 385.393 188.269 386.058C188.63 386.724 188.826 387.51 188.857 388.414C188.889 389.315 188.748 390.109 188.434 390.794C188.121 391.48 187.666 392.021 187.07 392.417C186.473 392.813 185.766 393.025 184.949 393.054ZM184.905 391.628C185.435 391.61 185.869 391.454 186.207 391.162C186.546 390.87 186.79 390.488 186.94 390.016C187.095 389.545 187.162 389.029 187.142 388.468C187.123 387.912 187.02 387.404 186.833 386.944C186.65 386.481 186.38 386.113 186.021 385.841C185.663 385.569 185.219 385.443 184.689 385.461C184.155 385.48 183.718 385.637 183.375 385.934C183.037 386.23 182.791 386.615 182.637 387.091C182.487 387.562 182.421 388.076 182.441 388.633C182.46 389.193 182.561 389.703 182.744 390.163C182.931 390.622 183.203 390.986 183.561 391.254C183.923 391.522 184.371 391.647 184.905 391.628ZM192.42 387.431L192.601 392.61L190.903 392.669L190.599 383.947L192.228 383.89L192.278 385.31L192.386 385.306C192.57 384.837 192.872 384.455 193.29 384.16C193.711 383.865 194.25 383.706 194.905 383.683C195.499 383.663 196.024 383.769 196.479 384.004C196.935 384.234 197.294 384.589 197.557 385.069C197.82 385.549 197.964 386.148 197.989 386.867L198.183 392.415L196.485 392.474L196.299 387.131C196.277 386.499 196.095 386.011 195.753 385.666C195.411 385.318 194.952 385.154 194.377 385.174C193.983 385.188 193.636 385.285 193.335 385.466C193.038 385.647 192.807 385.906 192.64 386.241C192.478 386.573 192.404 386.97 192.42 387.431ZM204.227 383.471L204.274 384.834L199.51 385.001L199.463 383.638L204.227 383.471ZM200.667 381.504L202.365 381.444L202.653 389.695C202.665 390.024 202.723 390.271 202.827 390.434C202.931 390.593 203.062 390.7 203.219 390.755C203.38 390.807 203.553 390.829 203.739 390.823C203.875 390.818 203.994 390.804 204.096 390.782C204.197 390.759 204.276 390.741 204.332 390.728L204.688 392.12C204.591 392.161 204.452 392.204 204.272 392.248C204.092 392.296 203.865 392.327 203.593 392.34C203.146 392.363 202.727 392.298 202.335 392.145C201.943 391.992 201.622 391.745 201.371 391.405C201.121 391.066 200.986 390.632 200.968 390.106L200.667 381.504ZM208.114 386.883L208.295 392.062L206.597 392.121L206.191 380.492L207.866 380.434L208.017 384.76L208.125 384.757C208.313 384.28 208.612 383.896 209.023 383.605C209.433 383.314 209.977 383.157 210.655 383.133C211.253 383.112 211.78 383.217 212.235 383.448C212.694 383.678 213.055 384.033 213.318 384.513C213.585 384.989 213.731 385.59 213.757 386.317L213.95 391.865L212.253 391.924L212.066 386.58C212.044 385.941 211.862 385.451 211.52 385.11C211.178 384.766 210.714 384.604 210.127 384.624C209.726 384.638 209.369 384.736 209.057 384.917C208.749 385.099 208.51 385.357 208.34 385.693C208.173 386.025 208.098 386.422 208.114 386.883ZM222.993 391.742C222.44 391.761 221.937 391.677 221.483 391.488C221.029 391.295 220.665 391.007 220.39 390.622C220.118 390.237 219.973 389.759 219.953 389.187C219.936 388.695 220.016 388.287 220.194 387.962C220.373 387.638 220.619 387.377 220.935 387.18C221.25 386.984 221.605 386.831 221.999 386.723C222.393 386.614 222.796 386.528 223.207 386.464C223.727 386.386 224.149 386.321 224.473 386.272C224.797 386.219 225.032 386.145 225.176 386.049C225.321 385.953 225.389 385.803 225.382 385.598L225.381 385.558C225.363 385.062 225.21 384.683 224.92 384.42C224.634 384.157 224.217 384.036 223.668 384.055C223.097 384.075 222.65 384.217 222.33 384.482C222.013 384.744 221.798 385.03 221.683 385.341L220.075 385.033C220.246 384.496 220.507 384.059 220.859 383.721C221.215 383.379 221.629 383.125 222.101 382.961C222.572 382.793 223.071 382.7 223.597 382.681C223.946 382.669 224.316 382.698 224.709 382.768C225.106 382.833 225.478 382.968 225.826 383.172C226.178 383.376 226.471 383.674 226.705 384.068C226.938 384.458 227.066 384.971 227.088 385.607L227.29 391.399L225.632 391.457L225.591 390.264L225.522 390.266C225.42 390.49 225.263 390.711 225.051 390.931C224.839 391.151 224.563 391.337 224.223 391.489C223.884 391.641 223.474 391.725 222.993 391.742ZM223.314 390.366C223.784 390.35 224.182 390.243 224.508 390.046C224.839 389.849 225.086 389.598 225.25 389.292C225.417 388.983 225.495 388.657 225.483 388.312L225.443 387.188C225.385 387.251 225.27 387.311 225.097 387.37C224.929 387.426 224.735 387.476 224.517 387.521C224.299 387.563 224.086 387.603 223.879 387.64C223.671 387.674 223.498 387.703 223.359 387.727C223.031 387.78 222.732 387.861 222.463 387.968C222.198 388.076 221.987 388.226 221.831 388.417C221.678 388.604 221.607 388.849 221.618 389.152C221.632 389.572 221.799 389.885 222.116 390.09C222.434 390.291 222.834 390.383 223.314 390.366ZM233.329 394.644C232.636 394.669 232.037 394.599 231.531 394.434C231.029 394.27 230.615 394.044 230.291 393.756C229.966 393.468 229.72 393.148 229.552 392.798L230.99 392.145C231.098 392.308 231.241 392.479 231.418 392.659C231.598 392.842 231.839 392.995 232.139 393.117C232.442 393.239 232.829 393.292 233.298 393.275C233.942 393.253 234.468 393.077 234.878 392.748C235.287 392.423 235.48 391.92 235.456 391.239L235.396 389.524L235.288 389.527C235.192 389.717 235.052 389.928 234.867 390.162C234.685 390.396 234.431 390.602 234.104 390.78C233.776 390.958 233.346 391.056 232.812 391.075C232.123 391.099 231.497 390.96 230.933 390.657C230.373 390.351 229.92 389.887 229.577 389.266C229.236 388.642 229.05 387.865 229.018 386.938C228.985 386.01 229.115 385.21 229.406 384.537C229.701 383.863 230.118 383.341 230.659 382.969C231.199 382.594 231.819 382.394 232.52 382.37C233.061 382.351 233.501 382.426 233.841 382.597C234.18 382.763 234.447 382.962 234.641 383.194C234.838 383.426 234.991 383.631 235.1 383.809L235.225 383.805L235.175 382.391L236.839 382.333L237.15 391.248C237.177 391.997 237.024 392.618 236.692 393.111C236.361 393.604 235.902 393.977 235.316 394.228C234.733 394.48 234.071 394.619 233.329 394.644ZM233.138 389.654C233.626 389.637 234.035 389.509 234.364 389.27C234.696 389.027 234.942 388.689 235.102 388.255C235.264 387.817 235.335 387.297 235.314 386.695C235.294 386.109 235.189 385.595 234.999 385.154C234.809 384.714 234.542 384.374 234.196 384.136C233.85 383.894 233.429 383.782 232.933 383.799C232.422 383.817 232.001 383.965 231.67 384.241C231.338 384.515 231.093 384.879 230.935 385.336C230.78 385.792 230.712 386.299 230.732 386.855C230.752 387.427 230.856 387.926 231.046 388.351C231.235 388.776 231.504 389.104 231.853 389.335C232.206 389.565 232.634 389.671 233.138 389.654ZM243.101 391.023C242.283 391.051 241.563 390.889 240.94 390.535C240.318 390.182 239.826 389.674 239.466 389.012C239.105 388.35 238.909 387.568 238.878 386.668C238.846 385.763 238.987 384.966 239.3 384.276C239.614 383.587 240.069 383.044 240.665 382.648C241.261 382.252 241.968 382.04 242.786 382.011C243.604 381.983 244.324 382.145 244.946 382.499C245.569 382.852 246.061 383.362 246.421 384.028C246.782 384.694 246.978 385.479 247.009 386.384C247.041 387.285 246.9 388.078 246.586 388.763C246.273 389.449 245.818 389.99 245.222 390.386C244.625 390.782 243.918 390.994 243.101 391.023ZM243.057 389.597C243.587 389.579 244.021 389.423 244.359 389.131C244.698 388.839 244.942 388.457 245.093 387.986C245.247 387.514 245.314 386.998 245.294 386.438C245.275 385.881 245.172 385.373 244.985 384.914C244.802 384.45 244.532 384.082 244.174 383.811C243.815 383.539 243.371 383.412 242.841 383.431C242.308 383.449 241.87 383.607 241.527 383.903C241.189 384.199 240.943 384.585 240.789 385.06C240.639 385.532 240.573 386.045 240.593 386.602C240.612 387.162 240.713 387.672 240.896 388.132C241.083 388.592 241.355 388.956 241.713 389.224C242.075 389.491 242.523 389.616 243.057 389.597Z" fill="#999999"/>
<path d="M384.987 380.514L385.161 385.511C385.17 385.759 385.079 386.001 384.91 386.183C384.74 386.365 384.505 386.472 384.257 386.481C384.008 386.489 383.767 386.399 383.585 386.229C383.403 386.06 383.296 385.825 383.287 385.576L383.192 382.844L378.708 387.651C378.623 387.741 378.522 387.814 378.41 387.865C378.298 387.916 378.177 387.944 378.053 387.949C377.93 387.953 377.807 387.933 377.692 387.89C377.576 387.847 377.47 387.781 377.38 387.697C377.29 387.613 377.217 387.512 377.166 387.4C377.115 387.287 377.086 387.166 377.082 387.043C377.078 386.92 377.098 386.797 377.141 386.681C377.184 386.566 377.25 386.46 377.334 386.37L381.818 381.563L379.085 381.658C378.837 381.667 378.595 381.576 378.413 381.407C378.231 381.237 378.124 381.002 378.116 380.754C378.107 380.505 378.197 380.264 378.367 380.082C378.537 379.9 378.771 379.793 379.02 379.784L384.017 379.61C384.265 379.601 384.507 379.691 384.689 379.861C384.871 380.031 384.978 380.265 384.987 380.514ZM390.626 371.874L380.632 372.223C380.218 372.238 379.826 372.416 379.544 372.719C379.261 373.022 379.111 373.425 379.125 373.839L379.245 377.275C379.254 377.523 379.361 377.758 379.543 377.928C379.724 378.097 379.966 378.188 380.215 378.179C380.463 378.17 380.698 378.063 380.868 377.882C381.037 377.7 381.127 377.458 381.119 377.209L381.01 374.086L390.379 373.759L390.706 383.128L387.583 383.237C387.335 383.246 387.1 383.353 386.93 383.535C386.761 383.717 386.67 383.959 386.679 384.207C386.688 384.456 386.795 384.69 386.976 384.86C387.158 385.03 387.4 385.12 387.649 385.111L391.084 384.991C391.498 384.977 391.89 384.799 392.172 384.495C392.455 384.192 392.605 383.789 392.591 383.375L392.242 373.381C392.228 372.967 392.049 372.576 391.746 372.293C391.443 372.011 391.04 371.86 390.626 371.874Z" fill="#999999"/>
<path d="M75.8191 105.338L66.4072 105.666L65.3919 76.5933L75.1019 76.2542C77.9506 76.1547 80.4173 76.6513 82.5022 77.744C84.5867 78.8272 86.211 80.4334 87.375 82.5627C88.5482 84.6821 89.1875 87.2513 89.2929 90.2703C89.3987 93.2988 88.9359 95.9207 87.9047 98.1361C86.8829 100.351 85.3514 102.082 83.3103 103.328C81.2689 104.565 78.7718 105.235 75.8191 105.338ZM70.6599 101.68L75.4439 101.513C77.6585 101.436 79.4847 100.955 80.9225 100.071C82.36 99.1777 83.4153 97.9233 84.0885 96.3079C84.7614 94.683 85.0577 92.7207 84.9774 90.421C84.8977 88.1402 84.4658 86.2176 83.6815 84.6531C82.9068 83.0882 81.7905 81.9191 80.3327 81.1456C78.8748 80.3722 77.086 80.0225 74.9661 80.0965L69.9123 80.273L70.6599 101.68ZM94.9161 104.671L94.1547 82.866L98.2573 82.7227L98.3782 86.1865L98.6054 86.1786C98.9619 84.9912 99.63 84.044 100.61 83.337C101.599 82.6203 102.732 82.2396 104.009 82.195C104.274 82.1857 104.587 82.1843 104.947 82.1907C105.317 82.1967 105.607 82.2103 105.816 82.2314L105.958 86.2914C105.786 86.25 105.481 86.2086 105.044 86.167C104.606 86.1159 104.169 86.098 103.734 86.1132C102.731 86.1483 101.844 86.3924 101.073 86.8457C100.312 87.2892 99.717 87.8928 99.2888 88.6563C98.8604 89.4103 98.6626 90.2605 98.6957 91.2069L99.1607 104.523L94.9161 104.671ZM116.426 104.403C115.044 104.451 113.786 104.239 112.651 103.767C111.516 103.286 110.605 102.564 109.918 101.603C109.24 100.641 108.876 99.4457 108.826 98.0166C108.783 96.7863 108.984 95.7654 109.43 94.9539C109.875 94.1424 110.492 93.4908 111.28 92.999C112.068 92.5071 112.955 92.1256 113.941 91.8543C114.926 91.583 115.932 91.3678 116.96 91.2087C118.26 91.0117 119.316 90.8517 120.127 90.7286C120.937 90.5961 121.523 90.4098 121.884 90.1698C122.245 89.9298 122.417 89.5542 122.399 89.0432L122.395 88.9438C122.352 87.704 121.968 86.7557 121.244 86.0987C120.53 85.4414 119.486 85.1368 118.114 85.1847C116.685 85.2346 115.57 85.5909 114.768 86.2538C113.976 86.9068 113.438 87.6221 113.152 88.3996L109.131 87.6303C109.558 86.2889 110.212 85.1953 111.092 84.3497C111.981 83.4943 113.015 82.8612 114.195 82.4505C115.374 82.0303 116.622 81.7972 117.937 81.7513C118.808 81.7208 119.734 81.7927 120.716 81.9669C121.707 82.1313 122.638 82.4683 123.509 82.978C124.389 83.4874 125.121 84.2341 125.705 85.2181C126.288 86.1926 126.608 87.4749 126.664 89.0648L127.169 103.545L123.024 103.689L122.92 100.708L122.75 100.714C122.494 101.273 122.101 101.826 121.571 102.376C121.041 102.925 120.351 103.389 119.502 103.77C118.653 104.15 117.627 104.361 116.426 104.403ZM117.229 100.964C118.403 100.923 119.398 100.656 120.215 100.163C121.041 99.67 121.658 99.042 122.068 98.2791C122.486 97.5065 122.68 96.6895 122.65 95.8283L122.552 93.0175C122.406 93.1742 122.117 93.3264 121.687 93.4741C121.265 93.612 120.781 93.7379 120.236 93.8517C119.69 93.956 119.158 94.0552 118.64 94.149C118.122 94.2335 117.688 94.3055 117.34 94.365C116.52 94.4979 115.774 94.6992 115.101 94.9691C114.438 95.2386 113.911 95.6123 113.52 96.0903C113.138 96.5584 112.961 97.1711 112.987 97.9282C113.024 98.9787 113.44 99.7601 114.235 100.272C115.029 100.775 116.027 101.006 117.229 100.964ZM142.266 111.659C140.534 111.72 139.036 111.544 137.771 111.134C136.515 110.723 135.481 110.157 134.67 109.437C133.858 108.717 133.243 107.919 132.824 107.043L136.42 105.41C136.69 105.818 137.046 106.246 137.488 106.695C137.94 107.153 138.54 107.535 139.29 107.84C140.049 108.145 141.016 108.277 142.189 108.236C143.798 108.18 145.114 107.741 146.137 106.919C147.161 106.106 147.643 104.848 147.583 103.144L147.433 98.8573L147.164 98.8667C146.924 99.3393 146.573 99.868 146.11 100.453C145.657 101.037 145.021 101.552 144.203 101.997C143.385 102.443 142.308 102.689 140.974 102.736C139.251 102.796 137.685 102.448 136.276 101.692C134.875 100.926 133.745 99.7664 132.885 98.214C132.035 96.6519 131.569 94.7114 131.488 92.3928C131.407 90.0741 131.73 88.073 132.458 86.3894C133.195 84.7054 134.239 83.3992 135.59 82.4708C136.941 81.533 138.492 81.0335 140.242 80.9723C141.596 80.9251 142.697 81.114 143.545 81.5392C144.394 81.9549 145.06 82.4528 145.545 83.0329C146.039 83.6126 146.421 84.1251 146.693 84.5704L147.005 84.5595L146.882 81.0247L151.041 80.8795L151.819 103.167C151.885 105.041 151.503 106.594 150.675 107.826C149.846 109.059 148.699 109.989 147.233 110.619C145.777 111.247 144.121 111.594 142.266 111.659ZM141.788 99.1823C143.009 99.1397 144.03 98.8198 144.853 98.2225C145.684 97.6155 146.299 96.7696 146.697 95.685C147.104 94.5906 147.282 93.291 147.229 91.7862C147.178 90.3193 146.915 89.0351 146.441 87.9335C145.966 86.832 145.297 85.9836 144.433 85.3884C143.569 84.7838 142.517 84.5031 141.277 84.5464C139.999 84.591 138.946 84.9594 138.117 85.6516C137.288 86.3344 136.676 87.2465 136.28 88.3879C135.893 89.5289 135.724 90.7951 135.773 92.1863C135.823 93.6153 136.084 94.8617 136.557 95.9254C137.03 96.9891 137.703 97.8089 138.576 98.3848C139.459 98.9605 140.529 99.2263 141.788 99.1823ZM176.55 102.232C174.6 102.3 172.908 102.004 171.473 101.344C170.048 100.683 168.935 99.7551 168.135 98.5607C167.335 97.3569 166.908 95.9789 166.854 94.4268C166.813 93.2438 167.022 92.1847 167.482 91.2495C167.942 90.3049 168.598 89.4244 169.451 88.6082C170.303 87.792 171.293 86.9662 172.42 86.1309L176.989 82.6597C177.766 82.1114 178.367 81.5408 178.791 80.948C179.216 80.3457 179.413 79.6139 179.383 78.7527C179.359 78.0713 179.043 77.4286 178.434 76.8244C177.825 76.2203 177.029 75.9354 176.045 75.9698C175.363 75.9936 174.768 76.1802 174.259 76.5296C173.76 76.8787 173.372 77.3186 173.097 77.8494C172.831 78.3703 172.708 78.9147 172.728 79.4826C172.751 80.1451 172.954 80.806 173.337 81.4654C173.73 82.1244 174.227 82.8035 174.83 83.5026C175.432 84.1922 176.063 84.9093 176.724 85.6537L190.788 101.323L185.99 101.491L174.359 88.7495C173.384 87.6749 172.477 86.6643 171.638 85.7176C170.799 84.7614 170.112 83.7905 169.575 82.8049C169.047 81.8094 168.763 80.7249 168.722 79.5514C168.676 78.217 168.937 77.0234 169.507 75.9707C170.086 74.9082 170.914 74.0644 171.991 73.4393C173.068 72.8142 174.345 72.4758 175.822 72.4243C177.317 72.3721 178.609 72.6207 179.699 73.1701C180.798 73.7097 181.653 74.4521 182.264 75.3973C182.885 76.3326 183.214 77.3682 183.254 78.5038C183.302 79.8856 183 81.1185 182.346 82.2026C181.701 83.2768 180.793 84.2751 179.622 85.1972L173.938 89.7023C172.831 90.5748 172.07 91.4257 171.653 92.2551C171.246 93.0748 171.05 93.7117 171.066 94.166C171.095 94.9988 171.335 95.7627 171.786 96.4576C172.246 97.1522 172.871 97.6989 173.662 98.0977C174.463 98.4961 175.388 98.677 176.439 98.6403C177.517 98.6026 178.56 98.3341 179.566 97.8347C180.581 97.3255 181.489 96.6162 182.291 95.707C183.103 94.7974 183.733 93.7189 184.183 92.4714C184.632 91.2239 184.83 89.8383 184.776 88.3146L188.609 88.1808C188.675 90.0546 188.517 91.6473 188.137 92.9587C187.756 94.2607 187.277 95.3292 186.699 96.1642C186.131 96.9895 185.59 97.6385 185.076 98.1113C184.911 98.2687 184.755 98.4257 184.609 98.5824C184.463 98.7391 184.307 98.8962 184.142 99.0535C183.193 100.082 182.026 100.857 180.642 101.379C179.267 101.901 177.903 102.185 176.55 102.232ZM214.446 100.497L205.034 100.826L204.018 71.7523L213.728 71.4132C216.577 71.3138 219.044 71.8104 221.129 72.903C223.213 73.9863 224.837 75.5925 226.001 77.7217C227.175 79.8412 227.814 82.4104 227.919 85.4294C228.025 88.4578 227.562 91.0797 226.531 93.2951C225.509 95.5101 223.978 97.2408 221.937 98.487C219.895 99.7238 217.398 100.394 214.446 100.497ZM209.286 96.8394L214.07 96.6724C216.285 96.595 218.111 96.1144 219.549 95.2303C220.986 94.3368 222.042 93.0823 222.715 91.4669C223.388 89.8421 223.684 87.8798 223.604 85.5801C223.524 83.2993 223.092 81.3766 222.308 79.8121C221.533 78.2473 220.417 77.0782 218.959 76.3047C217.501 75.5312 215.712 75.1815 213.592 75.2556L208.539 75.432L209.286 96.8394ZM233.543 99.83L232.781 78.0251L236.884 77.8818L237.005 81.3456L237.232 81.3377C237.588 80.1503 238.256 79.2031 239.236 78.4961C240.225 77.7793 241.358 77.3986 242.636 77.354C242.901 77.3448 243.213 77.3433 243.574 77.3497C243.944 77.3557 244.233 77.3693 244.442 77.3904L244.584 81.4505C244.412 81.4091 244.107 81.3676 243.67 81.326C243.232 81.275 242.796 81.2571 242.36 81.2723C241.357 81.3073 240.47 81.5515 239.7 82.0048C238.938 82.4483 238.343 83.0518 237.915 83.8153C237.487 84.5694 237.289 85.4196 237.322 86.366L237.787 99.6817L233.543 99.83ZM257.304 99.4408C255.26 99.5122 253.46 99.106 251.903 98.2223C250.347 97.3386 249.118 96.0691 248.217 94.414C247.316 92.7588 246.826 90.805 246.747 88.5526C246.668 86.2907 247.02 84.2981 247.803 82.5746C248.587 80.8511 249.724 79.4943 251.215 78.5042C252.706 77.5141 254.473 76.9833 256.517 76.9119C258.562 76.8405 260.362 77.2467 261.918 78.1304C263.475 79.0141 264.704 80.2883 265.605 81.9529C266.507 83.6176 266.997 85.5808 267.076 87.8427C267.154 90.0951 266.802 92.0783 266.019 93.7923C265.235 95.5063 264.098 96.8584 262.607 97.8485C261.116 98.8387 259.348 99.3694 257.304 99.4408ZM257.194 95.8771C258.519 95.8309 259.604 95.4424 260.451 94.7116C261.297 93.9809 261.908 93.0262 262.284 91.8476C262.669 90.6687 262.837 89.3789 262.788 87.9782C262.739 86.587 262.482 85.3168 262.015 84.1676C261.558 83.0087 260.882 82.0895 259.986 81.4101C259.091 80.7307 257.98 80.4141 256.655 80.4604C255.321 80.507 254.226 80.9006 253.371 81.6411C252.525 82.3813 251.91 83.3456 251.525 84.534C251.149 85.7126 250.985 86.9975 251.034 88.3887C251.083 89.7894 251.336 91.0644 251.793 92.214C252.259 93.3632 252.94 94.2727 253.835 94.9426C254.74 95.6122 255.859 95.9237 257.194 95.8771ZM272.476 106.657L271.429 76.6754L275.575 76.5307L275.698 80.0655L276.053 80.0531C276.283 79.5902 276.62 79.0526 277.063 78.4401C277.506 77.8277 278.131 77.2847 278.939 76.8112C279.746 76.3282 280.827 76.063 282.18 76.0158C283.94 75.9543 285.527 76.3442 286.94 77.1856C288.352 78.0269 289.481 79.2715 290.325 80.9192C291.178 82.5665 291.646 84.5684 291.728 86.925C291.811 89.2815 291.489 91.3157 290.762 93.0278C290.035 94.7303 289.001 96.0598 287.661 97.0163C286.32 97.9633 284.769 98.4675 283.009 98.529C281.684 98.5752 280.592 98.3907 279.735 97.9753C278.886 97.5596 278.215 97.0618 277.721 96.4821C277.227 95.9024 276.844 95.3852 276.572 94.9304L276.317 94.9393L276.721 106.509L272.476 106.657ZM275.97 87.4326C276.023 88.9658 276.292 90.3019 276.778 91.441C277.263 92.58 277.938 93.4614 278.803 94.085C279.668 94.6991 280.71 94.9849 281.931 94.9422C283.199 94.8979 284.248 94.525 285.076 93.8233C285.904 93.1121 286.515 92.1669 286.91 90.9876C287.314 89.8081 287.491 88.4895 287.44 87.0321C287.39 85.5936 287.127 84.3093 286.651 83.1794C286.186 82.0491 285.51 81.1678 284.626 80.5354C283.751 79.9027 282.675 79.6086 281.397 79.6532C280.167 79.6962 279.137 80.0496 278.307 80.7134C277.487 81.3769 276.879 82.2841 276.484 83.435C276.088 84.5859 275.917 85.9184 275.97 87.4326Z" fill="#A3A3A3"/>
<path d="M65.4213 133.868C65.325 131.108 67.484 128.793 70.2438 128.697L213.157 123.706C215.916 123.61 218.232 125.769 218.328 128.528L218.503 133.525C218.599 136.285 216.44 138.6 213.68 138.697L70.7673 143.687C68.0075 143.784 65.6922 141.625 65.5958 138.865L65.4213 133.868Z" fill="#E3E3E3"/>
<path d="M66.4274 162.681C66.3311 159.921 68.4901 157.605 71.2499 157.509L340.086 148.121C342.846 148.025 345.161 150.184 345.257 152.944L345.432 157.941C345.528 160.7 343.369 163.016 340.609 163.112L71.7734 172.5C69.0136 172.596 66.6983 170.437 66.6019 167.678L66.4274 162.681Z" fill="#E3E3E3"/>
<path d="M67.4396 191.662C67.3433 188.902 69.5023 186.587 72.2621 186.491L160.208 183.419C162.968 183.323 165.284 185.482 165.38 188.242L165.554 193.239C165.651 195.999 163.492 198.314 160.732 198.41L72.7856 201.481C70.0258 201.578 67.7105 199.419 67.6141 196.659L67.4396 191.662Z" fill="#E3E3E3"/>
<path d="M68.4865 221.644C68.3901 218.885 70.5492 216.569 73.309 216.473L377.124 205.864C379.883 205.767 382.199 207.926 382.295 210.686L382.47 215.683C382.566 218.443 380.407 220.758 377.647 220.854L73.8325 231.464C71.0727 231.56 68.7574 229.401 68.661 226.641L68.4865 221.644Z" fill="#E3E3E3"/>
<path d="M69.4987 250.627C69.4023 247.867 71.5614 245.552 74.3212 245.455L350.153 235.823C352.913 235.727 355.228 237.886 355.324 240.646L355.499 245.643C355.595 248.402 353.436 250.718 350.677 250.814L74.8447 260.446C72.0849 260.543 69.7696 258.384 69.6732 255.624L69.4987 250.627Z" fill="#E3E3E3"/>
</g>
<defs>
<filter id="filter0_dd_948_722" x="555.299" y="156.299" width="507.933" height="507.933" filterUnits="userSpaceOnUse" color-interpolation-filters="sRGB">
<feFlood flood-opacity="0" result="BackgroundImageFix"/>
<feColorMatrix in="SourceAlpha" type="matrix" values="0 0 0 0 0 0 0 0 0 0 0 0 0 0 0 0 0 0 127 0" result="hardAlpha"/>
<feOffset dx="3" dy="3"/>
<feGaussianBlur stdDeviation="16.5"/>
<feComposite in2="hardAlpha" operator="out"/>
<feColorMatrix type="matrix" values="0 0 0 0 0 0 0 0 0 0 0 0 0 0 0 0 0 0 0.05 0"/>
<feBlend mode="normal" in2="BackgroundImageFix" result="effect1_dropShadow_948_722"/>
<feColorMatrix in="SourceAlpha" type="matrix" values="0 0 0 0 0 0 0 0 0 0 0 0 0 0 0 0 0 0 127 0" result="hardAlpha"/>
<feOffset dx="9" dy="9"/>
<feGaussianBlur stdDeviation="16.5"/>
<feComposite in2="hardAlpha" operator="out"/>
<feColorMatrix type="matrix" values="0 0 0 0 0 0 0 0 0 0 0 0 0 0 0 0 0 0 0.05 0"/>
<feBlend mode="normal" in2="effect1_dropShadow_948_722" result="effect2_dropShadow_948_722"/>
<feBlend mode="normal" in="SourceGraphic" in2="effect2_dropShadow_948_722" result="shape"/>
</filter>
<filter id="filter1_dd_948_722" x="1.03857" y="1.03906" width="466.453" height="466.453" filterUnits="userSpaceOnUse" color-interpolation-filters="sRGB">
<feFlood flood-opacity="0" result="BackgroundImageFix"/>
<feColorMatrix in="SourceAlpha" type="matrix" values="0 0 0 0 0 0 0 0 0 0 0 0 0 0 0 0 0 0 127 0" result="hardAlpha"/>
<feOffset dx="3" dy="3"/>
<feGaussianBlur stdDeviation="16.5"/>
<feComposite in2="hardAlpha" operator="out"/>
<feColorMatrix type="matrix" values="0 0 0 0 0 0 0 0 0 0 0 0 0 0 0 0 0 0 0.05 0"/>
<feBlend mode="normal" in2="BackgroundImageFix" result="effect1_dropShadow_948_722"/>
<feColorMatrix in="SourceAlpha" type="matrix" values="0 0 0 0 0 0 0 0 0 0 0 0 0 0 0 0 0 0 127 0" result="hardAlpha"/>
<feOffset dx="9" dy="9"/>
<feGaussianBlur stdDeviation="16.5"/>
<feComposite in2="hardAlpha" operator="out"/>
<feColorMatrix type="matrix" values="0 0 0 0 0 0 0 0 0 0 0 0 0 0 0 0 0 0 0.05 0"/>
<feBlend mode="normal" in2="effect1_dropShadow_948_722" result="effect2_dropShadow_948_722"/>
<feBlend mode="normal" in="SourceGraphic" in2="effect2_dropShadow_948_722" result="shape"/>
</filter>
<filter id="filter2_dd_948_722" x="0.0385742" y="0.0390625" width="468.453" height="468.453" filterUnits="userSpaceOnUse" color-interpolation-filters="sRGB">
<feFlood flood-opacity="0" result="BackgroundImageFix"/>
<feColorMatrix in="SourceAlpha" type="matrix" values="0 0 0 0 0 0 0 0 0 0 0 0 0 0 0 0 0 0 127 0" result="hardAlpha"/>
<feOffset dx="3" dy="3"/>
<feGaussianBlur stdDeviation="16.5"/>
<feComposite in2="hardAlpha" operator="out"/>
<feColorMatrix type="matrix" values="0 0 0 0 0 0 0 0 0 0 0 0 0 0 0 0 0 0 0.05 0"/>
<feBlend mode="normal" in2="BackgroundImageFix" result="effect1_dropShadow_948_722"/>
<feColorMatrix in="SourceAlpha" type="matrix" values="0 0 0 0 0 0 0 0 0 0 0 0 0 0 0 0 0 0 127 0" result="hardAlpha"/>
<feOffset dx="9" dy="9"/>
<feGaussianBlur stdDeviation="16.5"/>
<feComposite in2="hardAlpha" operator="out"/>
<feColorMatrix type="matrix" values="0 0 0 0 0 0 0 0 0 0 0 0 0 0 0 0 0 0 0.05 0"/>
<feBlend mode="normal" in2="effect1_dropShadow_948_722" result="effect2_dropShadow_948_722"/>
<feBlend mode="normal" in="SourceGraphic" in2="effect2_dropShadow_948_722" result="shape"/>
</filter>
<clipPath id="clip0_948_722">
<rect width="20" height="20" fill="white" transform="translate(670.237 576.989) rotate(-10)"/>
</clipPath>
<clipPath id="clip1_948_722">
<rect width="20" height="20" fill="white" transform="translate(967.649 524.548) rotate(-10)"/>
</clipPath>
</defs>
</svg>
